<svg version="1.1" xmlns="http://www.w3.org/2000/svg" style="display: block;" viewBox="0 0 2048 997" width="1798" height="875" preserveAspectRatio="none">
<defs>
	<linearGradient id="Gradient1" gradientUnits="userSpaceOnUse" x1="478.678" y1="626.052" x2="479.382" y2="653.266">
		<stop class="stop0" offset="0" stop-opacity="1" stop-color="rgb(196,211,239)"/>
		<stop class="stop1" offset="1" stop-opacity="1" stop-color="rgb(228,235,247)"/>
	</linearGradient>
</defs>
<path transform="translate(0,0)" fill="rgb(253,253,253)" d="M 0 0 L 2048 0 L 2048 328.167 L 2048 641.805 L 2048 646.3 L 2048 682.741 L 2048 684.326 L 2048 804.7 L 2048 847.703 L 2048 849.711 L 2048 997 L 0 997 L 0 822.435 L 0 748.112 L 0 733.234 L 0 699.249 L 0 560.382 L 0 0 z"/>
<path transform="translate(0,0)" fill="rgb(229,234,247)" d="M 122.582 757.019 C 130.74 755.589 147.429 756.137 156.969 755.516 C 213.892 751.813 264.66 729.819 317.091 708.793 C 395.987 677.153 476.049 673.658 558.741 691.858 C 575.93 695.641 598.956 699.544 616.787 700.851 C 660.768 698.196 707.269 685.879 747.319 667.592 C 763.086 659.249 780.454 649.343 795.726 640.507 C 879.548 592.011 973.515 591.237 1059.87 634.031 C 1079.16 643.593 1086.77 648.358 1108.86 651.692 C 1205.86 666.329 1288.09 612.505 1361.13 556.243 C 1384.15 538.734 1407.96 521.464 1431.06 503.718 C 1500.94 449.285 1583.46 411.548 1674.08 421.232 C 1730.16 427.225 1784.56 445.802 1841.91 439.089 C 1899.23 432.379 1950.97 398.903 1997.92 367.293 C 2014.26 356.297 2032 340.446 2048 328.167 L 2048 641.805 L 2048 646.3 L 2048 682.741 L 2048 684.326 L 2048 804.7 L 2048 847.703 L 2048 849.711 L 2048 997 L 0 997 L 0 822.435 L 0 748.112 L 0 733.234 C 36.4259 743.501 84.348 756.153 122.582 757.019 z"/>
<path transform="translate(0,0)" fill="rgb(207,219,242)" d="M 0 733.234 C 36.4259 743.501 84.348 756.153 122.582 757.019 L 117.634 758.312 C 124.578 762.249 168.174 767.85 178.474 768.892 C 276.109 778.711 375.229 746.129 471.437 772.121 C 473.753 772.746 498.676 775.297 501.819 775.182 C 512.813 774.782 549.088 788.886 555.45 788.596 C 553.047 783.839 541.209 783.255 536.346 775.216 L 537.398 774.738 C 547.898 780.304 568.965 792.865 579.221 796.724 C 611.617 808.911 672.002 819.271 705.551 810.941 C 706.863 810.59 709.052 809.635 710.382 809.106 C 716.537 807.605 737.063 799.642 740.757 800.449 L 741.547 805.588 L 744.709 805.298 C 749.156 803.491 753.233 802.335 757.809 800.98 L 759.132 800.892 C 768.648 796.665 780.658 793.634 790.399 789.773 C 802.152 785.115 813.811 780.382 825.586 775.848 C 854.202 764.829 880.943 759.281 911.192 755.341 C 919.826 754.217 931.101 752.266 939.891 754.135 C 942.621 754.716 943.122 757.055 944.464 759.667 C 932.048 766.009 919.842 772.753 907.864 779.888 C 905.957 778.739 905.078 778.912 902.77 778.799 C 899.241 785.151 897.208 786.681 890.912 790.373 L 888.407 790.772 L 887.563 792.434 C 864.768 804.822 840.024 820.822 815.971 830.626 C 813.4 827.512 814.29 827.629 810.964 826.735 C 808.357 828.725 808.416 830.265 808.837 833.617 L 810.514 835.182 C 778.157 849.618 743.59 857.918 708.557 862.49 C 698.458 863.709 659.329 864.798 650.774 861.814 L 652.12 859.724 L 648.896 857.359 C 643.044 858.096 632.857 857.469 627.57 854.6 C 623.905 854.855 615.989 852.017 612.109 850.834 C 588.836 842.735 578.118 838.615 555.899 826.781 C 545.537 821.262 518.684 798.317 513.604 797.518 L 513.003 798.612 C 524.414 807.777 536.07 815.96 547.33 825.108 C 532.035 822.233 496.528 816.547 481.659 816.383 C 478.425 815.303 475.211 814.161 472.02 812.958 C 486.972 812.877 511.712 819.608 523.04 819.332 C 521.88 818.554 520.992 818.131 520.3 816.925 C 529.455 817.715 530.254 820.692 537.877 821.735 L 538.867 820.921 C 524.411 810.298 510.19 798.211 494.63 789.008 C 491.647 787.243 485.242 788.339 480.647 786.233 L 480.585 785.143 L 484.706 784.144 C 449.373 749.642 311.677 768.912 265.546 771.545 C 237.826 773.327 210.014 773.141 182.321 770.987 C 146.338 768.106 119.204 760.736 84.6875 754.723 C 55.688 749.672 32.6658 743.461 4.59819 736.91 C 2.59888 739.382 3.16824 744.868 3.09723 748.451 L 0 748.112 L 0 733.234 z"/>
<path transform="translate(0,0)" fill="rgb(243,217,184)" d="M 808.837 833.617 L 810.514 835.182 C 778.157 849.618 743.59 857.918 708.557 862.49 C 698.458 863.709 659.329 864.798 650.774 861.814 L 652.12 859.724 C 697.464 869.105 766.165 851.314 808.837 833.617 z"/>
<path transform="translate(0,0)" fill="rgb(218,226,244)" d="M 710.382 809.106 C 716.537 807.605 737.063 799.642 740.757 800.449 L 741.547 805.588 C 731.876 807.732 713.323 814.845 705.551 810.941 C 706.863 810.59 709.052 809.635 710.382 809.106 z"/>
<path transform="translate(0,0)" fill="rgb(218,226,244)" d="M 707.898 824.356 C 712.418 823.569 732.205 823.22 735.315 825.646 C 728.451 826.121 721.397 826.747 714.511 826.913 C 710.731 827.005 710.541 826.778 707.898 824.356 z"/>
<path transform="translate(0,0)" fill="rgb(182,202,240)" d="M 1774.71 602.554 C 1839.9 579.091 1918.08 577.856 1981.48 607.614 C 1983.8 608.703 1983.08 608.026 1984.3 610.179 L 1983.7 613.419 C 1985.99 615.649 1984.83 615.047 1988.15 615.566 C 1989.47 613.945 1989.86 613.446 1991.46 612.115 C 2002.68 615.953 2015.96 623.763 2026.65 629.34 C 2029.35 630.746 2030.53 633.385 2032.86 635.29 L 2034.1 634.688 C 2041.21 636.621 2042.58 639.115 2048 641.805 L 2048 646.3 L 2048 682.741 C 2043.77 680.624 2033.3 673.605 2028.82 670.833 C 2017.05 663.504 2005.03 656.572 1992.8 650.046 C 1922.13 612.829 1830.91 606.193 1755.05 629.73 C 1754.63 628.918 1754.16 627.628 1753.81 626.741 C 1757.16 622.693 1760.9 625.064 1768.2 620.644 L 1767.32 619.45 C 1762.47 619.407 1746.27 625.188 1740.53 627.041 C 1733.46 627.483 1728.73 635.736 1721.51 635.078 C 1718.43 634.798 1715.4 634.617 1712.4 635.469 C 1714.77 636.094 1716.33 636.109 1718.74 636.267 C 1716.92 638.556 1711.62 637.06 1706.76 642.182 L 1704.55 641.056 C 1705.84 636.823 1711.32 629.692 1714.27 626.347 C 1720.66 623.657 1720.51 633.597 1730.33 619.007 L 1728.87 616.74 C 1730.84 616.722 1735.53 615.502 1737.71 614.995 C 1742.03 614.914 1764.34 610.217 1770.55 609.191 C 1771.74 606.279 1772.85 605.008 1774.71 602.554 z"/>
<path transform="translate(0,0)" fill="rgb(238,239,244)" d="M 1770.55 609.191 C 1779.84 608.076 1789.22 607.792 1798.57 608.343 C 1785.95 611.454 1743.74 617.662 1730.33 619.007 L 1728.87 616.74 C 1730.84 616.722 1735.53 615.502 1737.71 614.995 C 1742.03 614.914 1764.34 610.217 1770.55 609.191 z"/>
<path transform="translate(0,0)" fill="rgb(182,202,240)" d="M 2034.1 634.688 C 2041.21 636.621 2042.58 639.115 2048 641.805 L 2048 646.3 C 2042.55 642.73 2037.22 640.181 2034.1 634.688 z"/>
<path transform="translate(0,0)" fill="rgb(191,207,239)" d="M 1751.88 648.539 C 1769.84 645.022 1789.49 641.984 1807.75 641.252 C 1816.25 643.044 1836.74 643.579 1847.25 644.765 C 1867.39 647.038 1891.57 652.936 1911.08 652.27 C 1913.05 652.966 1912.79 652.473 1913.88 652.568 C 1920.32 653.131 1957.84 667.078 1960.07 670.487 C 1955.77 670.623 1923.83 655.098 1915.22 653.989 C 1913.99 658.014 1905.29 665.956 1902.25 664.589 C 1893.39 660.6 1884.25 654.07 1874.24 653.292 C 1852.28 651.584 1829.96 649.519 1808.28 654.584 C 1804.28 655.524 1801.25 654.321 1798.53 656.42 C 1800.76 656.632 1812.98 654.418 1816.37 654.025 C 1828.44 652.626 1843.36 651.569 1855.49 652.644 L 1856 653.696 C 1847.37 655.105 1827.68 652.366 1820.32 654.912 C 1819.16 656.982 1818.56 658.33 1817.65 660.524 C 1814.13 662.632 1805.9 660.792 1801.33 660.207 L 1800.16 661.174 C 1804.63 664.164 1833.91 657.027 1841.24 664.708 L 1840.18 665.764 L 1837.06 665.058 L 1835.58 666.14 C 1836.72 666.62 1815.39 664.564 1816.08 664.123 C 1808.75 668.819 1797.1 677.971 1788.39 670.476 L 1788.38 668.286 C 1785.82 668.631 1783.26 668.991 1780.71 669.368 L 1777.12 670.54 C 1768.45 672.912 1761.59 673.709 1752.75 674.873 L 1746.69 675.401 C 1732.04 672.146 1717.95 682.313 1702.69 682.305 C 1705.82 680.706 1707.72 680.949 1710.78 678.561 L 1708.88 677.32 C 1704.57 678.673 1684.84 683.877 1682.84 684.777 C 1673.93 685.946 1616.15 697.616 1612.71 696.381 C 1613.52 695.234 1614.51 693.749 1615.37 692.678 C 1613.73 694.096 1654.01 678.368 1654.94 678.092 L 1654.86 676.529 C 1659.71 674.859 1667.95 672.636 1671.16 669.147 C 1691.41 661.597 1712.27 655.777 1733.5 651.747 C 1734.84 651.78 1749.32 648.986 1751.88 648.539 z"/>
<path transform="translate(0,0)" fill="rgb(207,219,242)" d="M 1740.87 666.443 C 1745.17 668.434 1766.26 664.503 1771.58 663.173 C 1763.91 671.674 1753.9 666.874 1747.43 671.466 L 1747.79 672.737 L 1752.22 673.673 L 1752.75 674.873 L 1746.69 675.401 C 1732.04 672.146 1717.95 682.313 1702.69 682.305 C 1705.82 680.706 1707.72 680.949 1710.78 678.561 L 1708.88 677.32 C 1713.11 671.235 1733.35 668.274 1740.87 666.443 z"/>
<path transform="translate(0,0)" fill="rgb(207,219,242)" d="M 1771.58 663.173 C 1778.72 663.237 1785.31 661.765 1794.81 662.042 C 1790.3 664.478 1785.35 667.301 1780.71 669.368 L 1777.12 670.54 C 1768.45 672.912 1761.59 673.709 1752.75 674.873 L 1752.22 673.673 L 1747.79 672.737 L 1747.43 671.466 C 1753.9 666.874 1763.91 671.674 1771.58 663.173 z"/>
<path transform="translate(0,0)" fill="rgb(218,226,244)" d="M 1740.87 666.443 C 1743.37 665.793 1745.9 665.193 1748.43 664.643 C 1755.94 663.009 1791.88 657.653 1797.06 660.978 L 1794.81 662.042 C 1785.31 661.765 1778.72 663.237 1771.58 663.173 C 1766.26 664.503 1745.17 668.434 1740.87 666.443 z"/>
<path transform="translate(0,0)" fill="rgb(207,219,242)" d="M 1654.94 678.092 C 1660.99 675.798 1681.96 670.252 1687.61 672.392 C 1681.03 674.339 1659.45 682.561 1654.94 678.092 z"/>
<path transform="translate(0,0)" fill="rgb(238,239,244)" d="M 1115.75 719.388 C 1119.51 718.761 1133.8 722.406 1138.79 722.419 C 1141.62 722.426 1151.98 730.137 1155.63 730.819 C 1189.85 740.374 1226 748.544 1261.52 749.447 C 1261.61 747.262 1261.57 746.779 1261.14 744.634 C 1263.37 744.026 1263.67 743.772 1265.71 744.55 C 1268.88 747.925 1271.09 751.292 1275.53 751.118 C 1291.7 750.483 1308.27 749.13 1324.43 748.336 C 1333.98 747.867 1343.26 743.144 1352.4 745.581 C 1350.53 746.103 1348.84 746.785 1347.03 747.476 C 1352.39 752.226 1422.15 730.838 1424.84 731.803 L 1423.85 733.911 C 1425.95 736.361 1424.93 735.55 1428.36 736.769 C 1431.56 735.65 1433.02 735.368 1436.36 734.765 L 1439.78 734.735 C 1443.98 735.877 1452.34 738.665 1455.97 737.271 C 1453.87 733.83 1451.44 732.397 1451.57 729.545 C 1459.9 726.341 1467.17 726.613 1473.99 721.051 L 1474.31 722.536 L 1474.78 721.478 L 1473.71 721.177 L 1474.67 721.926 C 1470.58 727.393 1459.85 728.769 1452.6 730.59 C 1455.11 733.412 1458.85 738.841 1462.78 738.662 C 1470.5 737.362 1477.67 735.851 1485.52 736.357 C 1481.06 739.545 1431.45 748.613 1425.95 748.051 L 1424.57 747.079 L 1425.16 746.49 C 1429.22 742.587 1430.18 741.523 1433.11 736.738 C 1426.73 738.24 1396.33 744.331 1393.99 747.833 C 1397.83 754.297 1410.75 741.381 1415.19 747.537 C 1414.65 749.726 1414.85 750.2 1412.44 751.562 C 1408.53 753.77 1401.5 754.53 1397.9 756.683 C 1392.16 760.11 1384.79 771.784 1377.92 772.371 L 1374.98 770.88 C 1374.24 771.258 1368.78 774.712 1369.45 774.649 C 1338.86 777.55 1309.63 771.273 1279.5 767.541 C 1279.02 767.95 1278.53 768.36 1278.04 768.769 C 1277.96 770.437 1278.08 771.969 1277.25 773.357 C 1275.58 771.591 1275.55 770.229 1275.04 767.832 C 1271.21 764.533 1230.81 757.732 1217.16 751.871 L 1217.92 750.296 L 1216.81 751.725 L 1216.65 750.451 C 1218.7 750.727 1220.28 750.435 1222.17 749.569 C 1208.91 747.163 1149.71 736.106 1142.95 728.292 L 1142.13 728.038 C 1141.77 729.765 1140.36 731.077 1138.61 731.309 C 1136.86 731.54 1135.16 730.642 1134.36 729.069 L 1133.05 729.276 L 1131.25 725.681 L 1132.21 724.651 C 1129.33 722.5 1119.8 720.44 1115.75 719.388 z"/>
<path transform="translate(0,0)" fill="rgb(243,217,184)" d="M 1142.95 728.292 C 1172.27 735.357 1199.7 745.721 1230.38 748.408 C 1234.72 748.788 1258.47 751.159 1260.3 752.154 C 1254.96 754.031 1229.27 750.431 1222.17 749.569 C 1208.91 747.163 1149.71 736.106 1142.95 728.292 z"/>
<path transform="translate(0,0)" fill="rgb(253,253,253)" d="M 1134.36 729.069 C 1133.54 727.443 1133.87 725.469 1135.18 724.203 C 1136.49 722.937 1138.48 722.674 1140.07 723.554 C 1141.67 724.435 1142.5 726.254 1142.13 728.038 C 1141.77 729.765 1140.36 731.077 1138.61 731.309 C 1136.86 731.54 1135.16 730.642 1134.36 729.069 z"/>
<path transform="translate(0,0)" fill="rgb(243,217,184)" d="M 1335.36 748.417 C 1338.98 747.761 1339.65 747.664 1343.32 747.985 L 1343.45 748.945 C 1336.2 751.82 1289.47 753.844 1278.39 753.786 C 1274.55 753.817 1273.27 753.683 1269.47 753.024 L 1269.12 752.318 C 1291.68 750.66 1311.22 750.864 1335.36 748.417 z"/>
<path transform="translate(0,0)" fill="rgb(238,239,244)" d="M 547.33 825.108 C 536.07 815.96 524.414 807.777 513.003 798.612 L 513.604 797.518 C 518.684 798.317 545.537 821.262 555.899 826.781 C 578.118 838.615 588.836 842.735 612.109 850.834 C 615.989 852.017 623.905 854.855 627.57 854.6 L 626.879 860.421 L 627.6 860.887 L 627.62 861.752 C 619.92 860.497 620.886 859.024 615.565 857.386 C 598.158 852.028 580.624 843.502 563.925 836.324 C 563.829 838.868 563.9 839.374 562.436 841.416 C 560.045 840.679 557.65 839.957 555.25 839.249 C 549.54 837.922 525.794 831.291 523.016 832.411 L 524.737 834.712 C 524.485 834.789 501.923 826.81 491.909 827.849 C 469.14 830.212 446.924 834.011 424.532 838.405 C 420.468 839.202 420.871 840.925 414.987 840.433 L 415.641 839.402 C 430.667 834.753 446.998 821.777 459.862 824.529 C 457.974 825.762 456.204 826.76 454.251 827.863 L 455.017 828.607 C 461.059 829.205 484.329 825.584 487.407 821.209 C 473.976 817.429 422.943 823.266 408.116 826.93 C 404.065 827.932 395.639 831.084 394.31 830.935 C 402.721 816.188 485.927 819.078 487.897 817.777 C 485.813 817.332 483.734 816.867 481.659 816.383 C 496.528 816.547 532.035 822.233 547.33 825.108 z"/>
<path transform="translate(0,0)" fill="rgb(218,226,244)" d="M 555.25 839.249 C 557.568 838.308 557.894 838.576 560.46 839.215 L 561.523 837.943 C 557.585 834.56 548.304 836.774 544.238 831.372 C 544.353 828.573 545.076 828.754 547.489 826.226 C 548.126 826.121 548.763 826.016 549.399 825.912 C 568.859 835.56 589.003 847.176 609.94 853.27 L 612.109 850.834 C 615.989 852.017 623.905 854.855 627.57 854.6 L 626.879 860.421 L 627.6 860.887 L 627.62 861.752 C 619.92 860.497 620.886 859.024 615.565 857.386 C 598.158 852.028 580.624 843.502 563.925 836.324 C 563.829 838.868 563.9 839.374 562.436 841.416 C 560.045 840.679 557.65 839.957 555.25 839.249 z"/>
<path transform="translate(0,0)" fill="rgb(238,239,244)" d="M 612.109 850.834 C 615.989 852.017 623.905 854.855 627.57 854.6 L 626.879 860.421 C 620.258 858.03 616.252 856.374 609.94 853.27 L 612.109 850.834 z"/>
<path transform="translate(0,0)" fill="rgb(243,217,184)" d="M 1799.87 566.574 C 1799.41 561.862 1798.55 560.256 1800.74 556.827 C 1808.65 553.084 1808.22 559.989 1812.89 558.616 C 1820.41 556.41 1837.35 540.537 1844.31 541.548 C 1843.22 542.621 1843.37 542.552 1842.33 543.085 C 1831.07 548.887 1732.07 612.38 1728.87 616.74 L 1730.33 619.007 C 1720.51 633.597 1720.66 623.657 1714.27 626.347 C 1703.84 626.572 1697.74 631.541 1689.67 633.308 C 1649.17 647.64 1608.94 662.716 1568.99 678.527 C 1559.24 682.413 1550.84 688.041 1541.15 691.304 C 1524.18 697.021 1507.92 703.833 1491.1 709.818 L 1490.11 714.274 L 1488.81 714.724 C 1487.92 713.738 1486.85 712.065 1485.69 712.435 C 1472.28 716.716 1453.93 723.23 1441.23 727.578 C 1439.53 729.662 1439.86 731.899 1439.78 734.735 L 1436.36 734.765 C 1433.02 735.368 1431.56 735.65 1428.36 736.769 C 1424.93 735.55 1425.95 736.361 1423.85 733.911 L 1424.84 731.803 C 1422.15 730.838 1352.39 752.226 1347.03 747.476 C 1348.84 746.785 1350.53 746.103 1352.4 745.581 C 1360.46 746.132 1362.76 742.129 1368.44 741.446 C 1391.5 738.671 1413.42 731.578 1435.41 724.404 C 1440.72 722.672 1447.54 722.839 1453.22 720.777 C 1512.76 699.136 1571.31 674.827 1630.59 652.469 C 1647.11 646.25 1663.71 640.25 1680.38 634.469 C 1690.31 631.025 1702.23 627.233 1711.94 622.986 C 1715.39 621.477 1711.76 617.365 1715.25 613.2 C 1718.69 611.926 1722.87 613.35 1726.56 614.196 C 1731.26 612.269 1748.76 600.337 1753.74 597.01 C 1769.03 586.731 1784.41 576.585 1799.87 566.574 z"/>
<path transform="translate(0,0)" fill="rgb(207,219,242)" d="M 1807.75 641.252 C 1818.98 640.367 1830.21 639.619 1841.45 639.01 C 1808.47 636.197 1795.69 639.413 1763.21 644.502 L 1762.63 643.808 L 1764.12 641.93 C 1781.44 642.137 1802.36 635.768 1819.22 636.055 C 1865.03 636.836 1932.9 646.971 1972.22 671.86 L 1973 673.493 C 1973.72 674.481 1974.11 674.652 1975.07 675.405 C 1975.29 674.318 1975.18 674.085 1974.85 673.068 C 1981.06 673.238 1996.27 686.129 2002.85 689.058 C 2004.16 689.64 2005.74 693.077 2005.84 695.246 L 2004.51 696.244 C 2000.01 695.192 1995.69 689.867 1990.95 686.989 C 1982.21 681.688 1967.73 676.095 1960.07 670.487 C 1957.84 667.078 1920.32 653.131 1913.88 652.568 C 1912.79 652.473 1913.05 652.966 1911.08 652.27 C 1891.57 652.936 1867.39 647.038 1847.25 644.765 C 1836.74 643.579 1816.25 643.044 1807.75 641.252 z"/>
<path transform="translate(0,0)" fill="rgb(218,226,244)" d="M 1911.08 652.27 C 1908.14 651.471 1896.35 648.603 1894.85 647.424 C 1898.75 644.918 1906.18 648.783 1910.61 649.603 C 1911.53 649.772 1913.77 647.881 1914.5 649.261 C 1923.11 654.252 1934.49 657.468 1944.01 660.981 C 1953.88 664.664 1963.55 668.84 1973 673.493 C 1973.72 674.481 1974.11 674.652 1975.07 675.405 C 1975.29 674.318 1975.18 674.085 1974.85 673.068 C 1981.06 673.238 1996.27 686.129 2002.85 689.058 C 2004.16 689.64 2005.74 693.077 2005.84 695.246 L 2004.51 696.244 C 2000.01 695.192 1995.69 689.867 1990.95 686.989 C 1982.21 681.688 1967.73 676.095 1960.07 670.487 C 1957.84 667.078 1920.32 653.131 1913.88 652.568 C 1912.79 652.473 1913.05 652.966 1911.08 652.27 z"/>
<path transform="translate(0,0)" fill="rgb(207,219,242)" d="M 1615.37 692.678 C 1612.54 694.182 1593.73 701.514 1591.37 701.36 C 1591.65 701.062 1613.94 687.333 1614.9 687.02 C 1628.96 682.414 1639.4 675.887 1652.07 668.686 C 1642.44 673.165 1628.57 680.275 1618.99 683.105 L 1618.11 682.375 C 1620.16 681.247 1623.22 679.687 1625.06 678.277 C 1632.48 672.606 1641.3 668.548 1649.56 664.036 L 1649.11 664.024 C 1650.53 662.736 1653.86 661.462 1655.68 662.229 C 1654.05 663.854 1653.07 664.641 1651.24 666.036 L 1652.15 666.697 C 1653.25 666.809 1654.56 666.944 1656.08 667.1 C 1658.86 664.001 1661.78 661.058 1665.01 658.427 C 1669.57 654.708 1674.9 652.134 1679.68 648.735 C 1681.97 647.113 1684.35 645.705 1686.92 644.587 C 1682.65 650.046 1673.03 654.024 1669.07 659.511 L 1669.51 660.828 C 1674.82 661.921 1680.35 660.891 1684.91 657.959 C 1691.28 653.807 1695.31 649.5 1703.24 648.184 L 1706.7 649.668 C 1702.3 657.869 1678.75 662.379 1670.28 667.847 C 1670.73 668.994 1670.35 668.699 1671.16 669.147 C 1667.95 672.636 1659.71 674.859 1654.86 676.529 L 1654.94 678.092 C 1654.01 678.368 1613.73 694.096 1615.37 692.678 z"/>
<path transform="translate(0,0)" fill="rgb(182,202,240)" d="M 1752.75 674.873 C 1761.59 673.709 1768.45 672.912 1777.12 670.54 C 1768.01 676.863 1754.28 672.862 1749.64 678.847 L 1749.8 680.014 C 1753.54 676.837 1751.84 677.622 1756.64 676.797 L 1758.76 677.699 L 1758.54 680.448 L 1760.05 680.825 L 1760.54 678.715 L 1763.76 679.201 L 1763.21 681.012 C 1758.16 683.286 1755.69 681.297 1753.92 683.846 C 1754.1 684.62 1754.41 684.488 1755.51 685.174 C 1762.76 682.952 1763.28 684.1 1767.1 677.73 C 1774.15 675.703 1777.8 679.917 1781.86 679.5 C 1795.39 678.112 1807.4 677.758 1820.99 678.079 L 1822.79 679.203 L 1822.84 681.928 L 1821.38 683.19 C 1818.63 682.631 1807.08 681.75 1806.49 681.234 L 1806.49 680.921 L 1796.54 680 L 1792.98 679.937 L 1793.01 681.955 C 1796 681.707 1800.07 681.043 1802.73 682.053 L 1801.98 682.892 C 1784.27 683.491 1766.84 685.645 1749.34 688.62 C 1743.49 689.614 1739.5 692.158 1733.97 694.059 L 1732.08 696.482 C 1731.54 695.618 1731.03 694.285 1730.14 693.98 C 1722.64 691.402 1700.96 713.136 1698.65 699.194 C 1705.07 696.027 1744.96 678.997 1746.69 675.401 L 1752.75 674.873 z"/>
<path transform="translate(0,0)" fill="rgb(207,219,242)" d="M 1793.01 681.955 C 1786.18 682.884 1772.5 684.729 1766.13 684.521 C 1769.43 681.373 1787.84 680.18 1792.98 679.937 L 1793.01 681.955 z"/>
<path transform="translate(0,0)" fill="rgb(207,219,242)" d="M 1796.54 680 C 1802.07 679.039 1815.57 677.461 1820.13 680.79 C 1817.81 681.848 1809.1 681.337 1806.49 680.921 L 1796.54 680 z"/>
<path transform="translate(0,0)" fill="rgb(207,219,242)" d="M 1698.65 699.194 C 1700.96 713.136 1722.64 691.402 1730.14 693.98 C 1731.03 694.285 1731.54 695.618 1732.08 696.482 C 1729.89 699.93 1729.06 700.124 1725.28 701.758 L 1724.31 703.428 C 1728.22 705.108 1752.93 700.442 1761.01 705.652 L 1761.56 707.3 C 1755.86 709.056 1747.83 705.361 1741.76 707.496 C 1737.01 709.164 1735.86 712.446 1732.32 711.122 L 1731.39 708.1 C 1724.85 709.158 1728.35 710.549 1722.78 708.338 C 1720.78 706.116 1720.81 705.625 1720.59 702.604 C 1702.14 702.277 1698.64 720.078 1691.09 717.983 C 1677.45 714.196 1680.28 714.059 1665.54 716.07 L 1664.09 717.975 L 1664.75 718.738 L 1666.51 717.952 L 1667.27 718.573 L 1666.32 720.116 C 1663 720.414 1664.25 720.704 1661.49 719.201 C 1660.57 713.03 1674.06 712.759 1678.78 708.799 C 1675.68 708.633 1671.37 708.577 1668.51 707.772 L 1668.73 707.298 L 1669.62 707.257 C 1683.05 706.555 1680.85 689.562 1698.16 698.68 C 1698.32 698.851 1698.48 699.023 1698.65 699.194 z"/>
<path transform="translate(0,0)" fill="rgb(218,226,244)" d="M 708.557 862.49 C 743.59 857.918 778.157 849.618 810.514 835.182 L 813.591 841.414 C 811.119 848.377 796.843 847.749 788.77 851.285 C 770.43 858.558 762.529 861.094 743.297 865.82 C 731.883 863.19 717.718 867.924 708.557 862.49 z"/>
<path transform="translate(0,0)" fill="rgb(207,219,242)" d="M 52.4959 779.213 C 66.3392 783.574 81.2595 785.488 96.5574 791.405 C 92.7913 791.413 87.7535 790.681 83.915 790.241 C 88.2008 793.262 132.556 802.628 141.089 804.517 C 145.246 805.437 160.283 810.9 163.559 810.884 C 172.444 810.838 182.837 811.208 191.838 810.734 C 198.84 810.365 210.58 807.082 216.99 807.864 L 217.27 810.068 C 212.019 814.523 206.692 812.788 200.266 811.462 C 198.405 814.917 198.618 817.167 195.998 818.757 C 188.226 816.603 197.972 811.532 178.428 815.285 C 163.825 816.206 149.598 809.543 136.669 806.599 C 127.708 804.558 112.008 800.291 104.236 799.34 C 94.7464 798.178 58.0671 782.703 53.7287 782.768 L 52.4959 779.213 z"/>
<path transform="translate(0,0)" fill="rgb(218,226,244)" d="M 1689.67 633.308 C 1697.74 631.541 1703.84 626.572 1714.27 626.347 C 1711.32 629.692 1705.84 636.823 1704.55 641.056 L 1706.76 642.182 C 1711.62 637.06 1716.92 638.556 1718.74 636.267 C 1716.33 636.109 1714.77 636.094 1712.4 635.469 C 1715.4 634.617 1718.43 634.798 1721.51 635.078 C 1728.73 635.736 1733.46 627.483 1740.53 627.041 C 1734.52 629.89 1731.82 632.368 1724.64 635.14 C 1721.55 636.335 1707.03 641.763 1705.65 642.631 C 1704.92 644.713 1705.13 645.396 1705.28 647.657 L 1703.24 648.184 C 1695.31 649.5 1691.28 653.807 1684.91 657.959 C 1680.35 660.891 1674.82 661.921 1669.51 660.828 L 1669.07 659.511 C 1673.03 654.024 1682.65 650.046 1686.92 644.587 C 1688.62 641.256 1693.82 636.072 1696.56 633.138 L 1698.97 635.036 L 1699.19 633.839 C 1697.08 639.335 1692.53 643.482 1687.88 646.881 C 1691.23 646.476 1704.83 635.243 1707.52 632.721 L 1707.17 631.414 C 1704.97 631.898 1695.97 633.013 1695.37 633.278 C 1689.06 636.076 1675.94 641.986 1672.5 647.301 L 1669.78 647.043 L 1669.34 645.999 C 1670.33 644.557 1686.7 635.19 1689.67 633.308 z"/>
<path transform="translate(0,0)" fill="rgb(182,202,240)" d="M 0 748.112 L 3.09723 748.451 C 11.486 752.943 40.4782 771.63 51.5498 776.76 C 51.9412 776.941 52.3987 778.961 52.4959 779.213 L 53.7287 782.768 C 46.6596 774.527 39.0384 777.365 29.7785 770.951 C 22.3514 765.806 13.4065 753.39 4.15402 754.943 C 1.28927 758.155 5.04088 818.598 1.99911 823.174 L 0 822.435 L 0 748.112 z"/>
<path transform="translate(0,0)" fill="rgb(218,226,244)" d="M 2032.84 749.167 C 2038.1 750.533 2041.94 755.639 2044.89 756.417 C 2044.84 749.076 2045.2 741.492 2045.28 734.136 C 2045.38 725.715 2043.5 728.934 2040.7 723.514 C 2041.99 722.658 2042.68 722.745 2044.21 722.622 L 2044.78 722.58 C 2045.08 717.956 2044.52 684.832 2045 683.702 L 2048 684.326 L 2048 804.7 L 2045.89 803.102 C 2042.85 795.792 2045.94 774.357 2045.35 765.879 C 2044.95 760.085 2033.72 755.57 2028.63 751.389 L 2028.01 750.879 L 2032.84 749.167 z"/>
<path transform="translate(0,0)" fill="rgb(238,239,244)" d="M 788.77 851.285 C 792.143 851.858 796.427 850.873 798.537 852.013 C 797.598 853.447 794.281 853.64 792.515 854.286 C 766.466 863.811 688.243 886.484 664.329 874.165 L 665.101 873.442 C 692.499 875.668 716.824 873.927 743.297 865.82 C 762.529 861.094 770.43 858.558 788.77 851.285 z"/>
<path transform="translate(0,0)" fill="rgb(207,219,242)" d="M 1740.53 627.041 C 1746.27 625.188 1762.47 619.407 1767.32 619.45 L 1768.2 620.644 C 1760.9 625.064 1757.16 622.693 1753.81 626.741 C 1754.16 627.628 1754.63 628.918 1755.05 629.73 C 1735.93 633.794 1722.78 639.345 1705.28 647.657 C 1705.13 645.396 1704.92 644.713 1705.65 642.631 C 1707.03 641.763 1721.55 636.335 1724.64 635.14 C 1731.82 632.368 1734.52 629.89 1740.53 627.041 z"/>
<path transform="translate(0,0)" fill="rgb(238,239,244)" d="M 710.382 809.106 C 715.258 804.576 751.933 794.616 760.46 790.893 C 761.221 790.561 761.529 791.189 762.312 791.913 C 758.374 795.617 759.486 794.09 759.132 800.892 L 757.809 800.98 C 753.233 802.335 749.156 803.491 744.709 805.298 L 741.547 805.588 L 740.757 800.449 C 737.063 799.642 716.537 807.605 710.382 809.106 z"/>
<path transform="translate(0,0)" fill="rgb(218,226,244)" d="M 744.709 805.298 L 743.925 801.432 C 746.603 795.999 750.225 795.766 755.764 796.995 L 757.809 800.98 C 753.233 802.335 749.156 803.491 744.709 805.298 z"/>
<path transform="translate(0,0)" fill="rgb(191,207,239)" d="M 1999.62 727.983 C 2002.68 732.048 2017.13 736.036 2021.56 738.764 C 2024.95 740.853 2029.09 747.967 2032.84 749.167 L 2028.01 750.879 C 2024.77 750.289 1999.98 733.753 1996.31 730.317 L 1999.62 727.983 z"/>
<path transform="translate(0,0)" fill="rgb(182,202,240)" d="M 1999.62 727.983 C 1993.56 728.143 1974.43 717.544 1970.2 713.405 L 1971.63 712.07 C 1970.83 711.105 1950.02 701.84 1947.19 700.575 C 1948.71 697.73 1950.9 697.156 1954.17 697.033 C 1955.31 698.827 1955.4 699.701 1956.97 700.356 C 1968.21 705.031 1976.76 714.281 1986.74 721.127 C 1990.86 723.952 1996.72 725.022 1999.62 727.983 z"/>
<path transform="translate(0,0)" fill="rgb(243,217,184)" d="M 887.563 792.434 C 885.72 798.174 848.15 817.473 840.781 821.256 C 832.809 825.322 824.691 829.097 816.445 832.575 L 815.412 831.912 L 815.971 830.626 C 840.024 820.822 864.768 804.822 887.563 792.434 z"/>
<path transform="translate(0,0)" fill="rgb(238,239,244)" d="M 948.529 752.968 C 949.766 748.577 948.86 749.597 951.926 746.674 C 955.708 745.789 954.119 745.737 957.972 747.08 C 962.045 751.008 963.533 754.396 959.599 759.077 C 955.521 760.797 954.346 761.028 949.814 759.649 L 948.529 752.968 z"/>
<path transform="translate(0,0)" fill="rgb(218,226,244)" d="M 1708.88 677.32 L 1710.78 678.561 C 1707.72 680.949 1705.82 680.706 1702.69 682.305 C 1698.29 684.397 1689.06 686.428 1685.88 688.532 C 1677.09 694.346 1678.76 694.324 1668.64 698.385 L 1667.91 698.082 C 1669.62 696.899 1684.12 685.066 1682.65 685.774 L 1682.84 684.777 C 1684.84 683.877 1704.57 678.673 1708.88 677.32 z"/>
<path transform="translate(0,0)" fill="rgb(253,193,119)" d="M 947.016 758.138 C 945.978 754.535 945.263 750.679 947.112 747.117 C 948.025 745.329 949.667 744.024 951.614 743.537 C 964.706 740.2 972.14 758.681 956.308 762.824 C 954.385 763.327 951.382 761.683 949.69 760.589 L 949.814 759.649 C 954.346 761.028 955.521 760.797 959.599 759.077 C 963.533 754.396 962.045 751.008 957.972 747.08 C 954.119 745.737 955.708 745.789 951.926 746.674 C 948.86 749.597 949.766 748.577 948.529 752.968 C 948.11 754.727 947.771 756.502 947.016 758.138 z"/>
<path transform="translate(0,0)" fill="rgb(243,217,184)" d="M 948.529 752.968 L 949.814 759.649 L 949.69 760.589 C 943.324 760.08 915.043 780.487 909.088 781.473 L 907.864 779.888 C 919.842 772.753 932.048 766.009 944.464 759.667 L 947.016 758.138 C 947.771 756.502 948.11 754.727 948.529 752.968 z"/>
<path transform="translate(0,0)" fill="rgb(191,207,239)" d="M 1737.71 614.995 C 1749.42 610.561 1762.64 605.601 1774.71 602.554 C 1772.85 605.008 1771.74 606.279 1770.55 609.191 C 1764.34 610.217 1742.03 614.914 1737.71 614.995 z"/>
<path transform="translate(0,0)" fill="rgb(243,217,184)" d="M 1131.25 725.681 C 1128.07 725.348 1090.78 717.768 1090.34 717.209 C 1100.06 716.854 1106.25 717.694 1115.75 719.388 C 1119.8 720.44 1129.33 722.5 1132.21 724.651 L 1131.25 725.681 z"/>
<path transform="translate(0,0)" fill="rgb(207,219,242)" d="M 2048 849.711 C 2044.93 847.919 2023.45 831.635 2022.64 829.382 L 2024.07 829.041 C 2027.87 830.75 2044.19 844.477 2048 847.703 L 2048 849.711 z"/>
<path transform="translate(0,0)" fill="rgb(218,226,244)" d="M 1733.5 651.747 C 1729.94 651.432 1728.36 652.256 1724.45 651.186 L 1726.51 651.54 L 1725.52 650.287 C 1732.52 648.321 1744.69 646.477 1751.88 648.539 C 1749.32 648.986 1734.84 651.78 1733.5 651.747 z"/>
<path transform="translate(0,0)" fill="rgb(243,217,184)" d="M 890.912 790.373 C 897.208 786.681 899.241 785.151 902.77 778.799 C 903.047 780.948 903.886 782.953 902.628 784.588 C 900.373 787.52 894.754 792.946 890.912 790.373 z"/>
<path transform="translate(0,0)" fill="rgb(191,207,239)" d="M 1702 774.5 C 1702.78 774.188 1704.19 773.695 1705.04 773.657 C 1748.3 771.724 1796.4 781.176 1837.05 795.463 C 1844.64 798.133 1856.3 801.585 1862.04 806.296 L 1861.33 807.679 C 1857.48 808.338 1812.77 792.564 1803.71 790.154 C 1789.14 786.356 1774.33 783.522 1759.39 781.669 C 1755.11 781.1 1739.74 779.759 1736.69 778.862 C 1738.45 777.922 1739.56 777.688 1740.54 776.179 C 1724.25 775.85 1706.92 781.161 1690.45 779.408 C 1686.96 779.036 1685.34 778.257 1681.61 778.627 L 1684.98 779.508 L 1684.54 780.53 C 1679.56 780.576 1674.54 780.033 1669.57 779.598 L 1672.22 780.65 L 1670.97 781.522 C 1664.75 779.212 1646.96 783.924 1638.42 785.198 L 1638.94 785.335 C 1635.49 786.752 1636.67 786.401 1632.76 785.908 C 1628.36 785.427 1608.17 789.885 1605.49 793.105 C 1608.68 794.329 1616.14 793.679 1619.94 793.559 C 1612.13 797.099 1599.05 798.922 1590.54 801.987 C 1580.4 805.643 1570.8 811.539 1560.03 813.119 L 1561.01 812.895 C 1563.48 809.238 1600.35 797.135 1604.46 794.599 L 1603.57 793.701 C 1599.21 793.156 1595.59 797.928 1589.97 798.479 C 1574.05 800.039 1547.08 817.209 1534.23 820.574 C 1540 816.059 1553.25 810.505 1560.44 807.372 C 1601.97 789.27 1656.49 774.029 1702 774.5 z"/>
<path transform="translate(0,0)" fill="rgb(218,226,244)" d="M 1704.09 754.369 C 1705.29 755.132 1706.35 757.912 1707.11 759.386 C 1710.7 760.299 1726.2 756.038 1731.31 755.66 C 1775.66 752.385 1819.54 759.185 1862.24 769.422 C 1859.48 770.686 1857.02 770.302 1854.15 769.494 C 1840.87 765.756 1808.57 758.669 1795.7 759.669 C 1800.71 761.399 1812.52 761.275 1816.99 762.523 C 1832.47 766.929 1848.98 768.737 1864.71 772.379 C 1867.32 772.983 1880.96 776.065 1882.07 776.831 L 1881.34 777.678 C 1874.24 777.34 1845.53 770.178 1836.09 768.226 C 1809.51 765.224 1794.36 759.464 1763.98 760.071 C 1763.69 760.506 1762.42 762.236 1762.03 762.236 C 1715.33 762.348 1671.78 768.719 1626.46 780.523 C 1620.73 782.014 1602.1 789.486 1597.69 788.454 C 1600.97 783.304 1614.71 782.721 1619.51 780.706 C 1645.97 769.592 1674.77 765.021 1702.95 760.451 C 1702.95 760.451 1704.33 759.118 1704.47 758.985 L 1704.09 754.369 z"/>
<path transform="translate(0,0)" fill="rgb(182,202,240)" d="M 1797.96 734.437 C 1804.36 732.466 1819.05 735.585 1825.72 736.375 C 1867.84 741.36 1908.33 755.41 1945.3 775.976 C 1950.28 778.747 1978.25 795.214 1979.72 799.35 L 1981.42 799.964 L 1981.69 801.376 L 1979.75 801.03 C 1979.58 799.322 1980.06 801.414 1977.38 799.112 C 1941.94 776.46 1895.57 756.877 1854.92 745.808 C 1847.16 743.693 1803.63 735.231 1798.39 736.582 L 1797.96 734.437 z"/>
<path transform="translate(0,0)" fill="rgb(182,202,240)" d="M 1836.76 618.514 C 1883.12 616.624 1924.93 623.211 1968.11 640.931 C 1973.52 643.152 1986.3 648.128 1990.13 651.567 L 1988.46 651.99 C 1983.21 648.278 1970.92 643.629 1964.76 641.148 C 1958.58 638.943 1957.87 646.068 1950.68 645.655 C 1934.16 644.707 1936.1 630.353 1917.26 635.181 C 1912.58 636.38 1891.96 636.907 1886.82 636.562 L 1885.5 635.023 C 1885.65 632.393 1886.1 631.949 1887.4 629.555 C 1890.64 627.697 1890.16 628.401 1894.75 629.098 C 1898.91 626.686 1899.69 628.17 1903.12 624.748 C 1895.48 618.971 1848.85 619.42 1836.76 618.514 z"/>
<path transform="translate(0,0)" fill="rgb(218,226,244)" d="M 1624.04 712.771 C 1625.52 713.914 1626.1 714.22 1627.1 715.847 C 1623.31 718.145 1618.84 720.735 1615.06 723.275 C 1609.99 726.692 1582.48 737.318 1579.94 740.84 C 1582.68 739.883 1583.3 739.53 1586.11 740.066 L 1587.15 741.654 C 1585.1 745.496 1576.26 753.802 1572.42 758.592 C 1572.35 758.611 1572.28 758.631 1572.22 758.65 C 1571.6 758.65 1570.99 758.649 1570.37 758.649 C 1570.24 758.397 1568.33 754.667 1568.33 754.666 C 1567.08 753.949 1564.06 752.349 1563.15 751.372 C 1561.46 749.577 1560.4 747.314 1560.38 744.898 C 1563.59 741.116 1614.13 718.297 1624.04 712.771 z"/>
<path transform="translate(0,0)" fill="rgb(253,253,253)" d="M 1575.55 740.745 C 1577.47 742.698 1577.72 743.018 1578.93 745.471 C 1578.6 749.794 1575.24 752.24 1572.06 755.124 C 1570.51 753.22 1566.71 749.781 1564.78 747.935 C 1568.15 745.497 1572.05 743.049 1575.55 740.745 z"/>
<path transform="translate(0,0)" fill="rgb(218,226,244)" d="M 1915.88 730.024 L 1917.38 729.678 C 1946.68 741.352 1987.87 764.965 2014.4 783.597 C 2016.34 784.962 2015.84 785.739 2015.88 788.214 C 2008.92 786.733 1982.75 768.599 1974.86 763.82 C 1956.31 752.583 1934.82 744.177 1916.84 734.218 C 1916.79 732.348 1916.64 731.737 1915.88 730.024 z"/>
<path transform="translate(0,0)" fill="rgb(207,219,242)" d="M 1665.49 786.177 C 1685.82 783.802 1718.98 790.143 1739.37 793.469 C 1745.32 794.438 1750.71 794.286 1756.37 795.037 C 1760.14 795.537 1762.49 797.507 1767.75 798.015 L 1768.47 798.079 L 1768.77 799.074 C 1764.72 800.402 1761.01 796.851 1755.24 797.496 L 1760.89 799.353 C 1758.58 800.409 1751.06 798.964 1747.79 798.643 C 1736.82 800.833 1729.06 793.473 1722.74 793.189 C 1696.89 792.026 1670.55 787.939 1645 794.093 L 1643.55 792.663 L 1643.92 794.172 L 1642.91 793.088 C 1647.84 788.572 1658.61 787.528 1665.49 786.177 z"/>
<path transform="translate(0,0)" fill="rgb(207,219,242)" d="M 1785.1 739.616 C 1788.12 739.722 1798.98 742.653 1802.46 743.504 C 1830.82 750.459 1858.23 760.405 1885.62 770.407 C 1889.08 771.67 1912.86 783.142 1913.53 784.3 C 1909.93 783.893 1905.88 781.932 1902.62 780.328 C 1881.22 769.822 1859.26 762.57 1836.72 754.918 C 1834.8 754.204 1814.2 748.587 1812.35 748.479 C 1822.73 752.563 1889.55 773.559 1891.98 777.783 C 1889.63 778.24 1868.39 769.059 1864.3 767.633 C 1839.91 759.136 1815.05 751.328 1790.02 744.923 C 1786.79 744.095 1786.91 742.827 1785.1 739.616 z"/>
<path transform="translate(0,0)" fill="rgb(238,239,244)" d="M 1528.37 789.793 L 1530.46 790.018 C 1534.98 786.368 1533.42 787.874 1539.82 787.045 C 1545.98 786.248 1551.49 781.373 1557.37 783.631 L 1556.48 783.793 L 1555.82 783.921 C 1540.52 786.824 1524.27 798.888 1510.34 806.71 L 1510.68 806.724 C 1502.27 810.683 1475.45 824.927 1467.75 821.848 C 1468.38 813.317 1488.74 811.342 1495.84 809.56 C 1495.82 808.405 1496.05 808.662 1495.54 808.008 C 1504.36 803.143 1514.71 799.332 1522.82 793.081 C 1524.75 791.594 1526.19 790.816 1528.37 789.793 z"/>
<path transform="translate(0,0)" fill="rgb(207,219,242)" d="M 1223.47 854.845 C 1227.63 854.499 1232.4 855.473 1235.29 858.753 C 1237.27 860.982 1238.26 863.916 1238.05 866.889 C 1237.69 872.09 1235.36 874.879 1231.64 878.043 C 1226.24 878.434 1221.84 879.411 1218.16 874.496 C 1212.7 867.201 1217.2 859.556 1223.47 854.845 z"/>
<path transform="translate(0,0)" fill="rgb(229,234,247)" d="M 1224.34 856.694 C 1226.99 856.706 1230.31 857.298 1232.45 858.993 C 1234.43 860.554 1235.6 862.928 1235.63 865.452 C 1235.7 869.412 1233.58 872.919 1231.05 875.766 C 1214.56 877.03 1214.26 866.138 1224.34 856.694 z"/>
<path transform="translate(0,0)" fill="rgb(218,226,244)" d="M 252.674 818.139 L 256.416 818.886 C 254.746 819.989 254.756 820.034 253.434 821.567 L 256.03 822.195 L 255.502 823.24 C 250.431 824.275 246.096 824.962 241.005 825.684 L 240.269 826.869 L 242.954 831.539 L 242.04 832.74 C 237.503 833.095 232.96 833.35 228.413 833.504 L 229.295 834.143 L 229.419 835.146 C 220.349 835.452 180.259 842.707 175.579 838.042 C 177.211 834.593 181.366 839.006 185.588 837.449 L 183.086 835.477 L 182.456 834.89 C 186.208 833.554 188.831 834.566 191.075 836.878 C 193.17 836.851 194.945 836.828 196.401 836.809 L 196.623 835.879 L 193.33 834.647 L 194.09 833.724 C 197.582 833.108 199.207 835.18 202.411 836.145 C 206.986 837.523 203.5 835.656 206.184 832.531 L 208.428 834.707 C 210.9 835.225 211.153 835.413 213.456 834.643 L 210.447 832.062 C 212.298 831.126 212.501 831.574 214.999 831.825 C 218.021 834.274 219.237 836.255 222.36 833.315 C 221.046 832.098 219.177 832.107 217.332 831.863 C 221.074 825.83 237.379 823.606 244.207 822.256 C 245.62 821.977 251.145 818.974 252.674 818.139 z"/>
<path transform="translate(0,0)" fill="rgb(218,226,244)" d="M 1650.72 717.268 C 1653.51 718.12 1654.38 718.219 1656.24 720.518 L 1655.82 722.323 C 1644.67 728.443 1613.51 746.35 1602.04 749.238 L 1602.03 751.599 C 1598.85 753.539 1592.86 756.189 1589.16 756.924 C 1586.95 758.173 1585.97 758.664 1583.59 759.549 L 1582.86 758.922 C 1594.9 743.456 1642.37 730.48 1650.72 717.268 z"/>
<path transform="translate(0,0)" fill="rgb(182,202,240)" d="M 1711.44 804.084 C 1717.42 801.192 1759.51 807.774 1767.86 810.749 C 1771.13 811.913 1775.97 813.97 1780.22 815.129 L 1780.66 816.382 C 1776.36 817.215 1763.01 814.877 1758.07 814.172 L 1757.75 813.144 L 1757.62 813.079 C 1761.03 812.836 1764.35 812.676 1767.72 812.052 C 1763.96 811.022 1747.28 808.142 1744.25 809.002 C 1743.6 809.772 1742.7 810.19 1741.8 810.739 L 1741.4 810.101 L 1743.22 807.736 L 1743.03 807 C 1735.87 811.054 1714.07 807.657 1704.51 807.285 C 1694.94 806.912 1666.28 810.132 1659.21 808.178 C 1660.28 807.371 1664.76 804.987 1665.86 805.163 C 1681.46 807.648 1696.01 805.864 1711.44 804.084 z"/>
<path transform="translate(0,0)" fill="rgb(207,219,242)" d="M 1482.13 840.411 L 1482.55 840.67 C 1477.9 845.853 1461.25 848.531 1459.81 849.774 L 1460.52 851.648 C 1462.58 850.132 1477.09 846.249 1480.32 845.388 L 1480.48 846.159 C 1469.02 855.506 1465.23 850.311 1450.46 858.92 C 1447.12 860.847 1430.86 865.453 1426.72 865.684 L 1425.76 864.781 C 1426.23 863.521 1427.33 862.974 1428.46 862.155 C 1439.13 862.196 1439.81 854.511 1452.44 849.198 C 1464.56 844.1 1471.3 844.282 1482.13 840.411 z"/>
<path transform="translate(0,0)" fill="rgb(182,202,240)" d="M 398.25 784.475 C 404.467 782.76 465.096 783.071 473.367 785.24 C 471.605 786.736 464.657 785.321 460.889 786.481 C 463.985 786.736 466.275 786.516 468.5 788.49 C 451.938 788.549 435.612 788.043 419.069 787.403 C 414.173 787.214 398.239 789.851 394.73 787.553 C 396.641 786.159 403.07 787.928 405.348 786.385 C 401.497 786.052 400.299 786.713 398.25 784.475 z"/>
<path transform="translate(0,0)" fill="rgb(218,226,244)" d="M 1495.54 808.008 L 1492.94 807.522 L 1492.26 806.259 C 1505.79 803.884 1507.13 799.722 1516.1 791.423 C 1517.59 790.045 1521.61 789.85 1522.79 787.73 C 1517.92 788.178 1517.93 790.202 1514.38 788.63 C 1513.84 779.403 1509.29 788.032 1503.03 785.482 L 1502.47 783.458 C 1505.94 778.61 1528.37 778.394 1533.67 779.595 C 1530.24 782.865 1520.12 783.602 1518.34 786.35 C 1521.83 787.761 1523.46 784.8 1527.72 786.241 L 1527.77 787.948 L 1524.92 788.573 L 1528.37 789.793 C 1526.19 790.816 1524.75 791.594 1522.82 793.081 C 1514.71 799.332 1504.36 803.143 1495.54 808.008 z"/>
<path transform="translate(0,0)" fill="rgb(238,239,244)" d="M 705.684 749.032 L 711.294 748.608 C 712.745 750.163 712.299 749.56 712.708 751.947 C 710.109 757.673 706.441 755.617 701.058 755.394 C 690.626 754.963 680.218 755.22 669.786 755.542 C 666.339 755.649 664.665 757.748 661.182 759.165 L 659.694 755.512 C 657.357 754.328 645.224 754.706 641.75 754.705 C 638.45 755.046 633.581 756.435 631.945 753.225 C 634.345 752.984 635.112 753.242 636.412 753.334 C 638.532 753.485 639.747 750.297 643.655 750.532 C 648.13 750.802 655.424 753.043 659.35 753.126 C 673.908 753.433 691.829 752.83 705.684 749.032 z"/>
<path transform="translate(0,0)" fill="rgb(238,239,244)" d="M 1879.83 516.234 C 1882.3 517.206 1885.46 519.603 1886.34 522.127 C 1883.35 531.711 1856.87 538.686 1847.61 539.855 L 1847.12 540.382 L 1845.66 540.376 C 1844.78 537.681 1844.77 537.35 1845.45 534.598 C 1846.88 534.404 1848.71 535.752 1850.09 536.548 C 1857.86 531.706 1866.91 528.543 1874.59 523.374 C 1879.26 520.226 1878.34 521.432 1879.83 516.234 z"/>
<path transform="translate(0,0)" fill="rgb(207,219,242)" d="M 996.456 756.98 L 1000.08 757.17 C 996.655 758.928 990.514 760.669 988.516 763.321 C 989.561 766.499 992.082 764.591 995.71 765.136 C 1000.99 765.928 1006.06 767.328 1011.39 767.868 C 1027.06 769.457 1071.5 772.608 1083.82 781.308 C 1075.63 779.182 1064.19 777.275 1055.37 775.262 C 1040.1 773.158 1024.75 771.632 1009.58 769.783 C 992.65 767.721 991.803 763.839 973.832 767.929 C 975.462 766.484 976.493 765.657 978.54 764.883 C 974.504 765.71 970.681 762.693 965.985 760.472 C 968.729 759.407 972.562 760.927 975.596 761.721 C 985.747 764.38 988.268 761.878 996.456 756.98 z"/>
<path transform="translate(0,0)" fill="rgb(218,226,244)" d="M 1799.49 700.499 C 1808.02 699.402 1814.4 701.426 1821.98 700.508 L 1822.83 700.397 L 1823.73 701.576 C 1822.98 702.185 1822.27 702.87 1821.39 703.265 L 1823.65 703.786 L 1823.33 704.706 C 1816.36 706.35 1807.08 704.533 1799.89 705.102 C 1795.6 705.442 1791.4 708.611 1786.21 708.119 C 1781.8 707.82 1773.13 709.173 1769.11 707.371 C 1772.64 705.955 1776.54 706.008 1780.38 705.157 C 1776.7 705.336 1773.68 705.392 1770 705.326 L 1769.27 704.319 C 1772.94 702.937 1794.45 701.039 1799.49 700.499 z"/>
<path transform="translate(0,0)" fill="rgb(207,219,242)" d="M 431.502 696.548 L 433.084 696.493 L 430.479 698.252 C 432.094 698.443 432.301 698.528 433.78 699.005 C 431.008 702.417 419.417 700.869 415.027 702.007 C 406.256 704.281 370.269 710.92 364.209 715.873 C 359.796 718.048 357.522 718.773 352.785 720.234 L 352.54 719.301 C 361.417 709.963 417.653 697.579 431.502 696.548 z"/>
<path transform="translate(0,0)" fill="rgb(207,219,242)" d="M 454.671 713.023 C 457.046 712.512 456.19 712.353 458.213 713.235 C 458.199 715.528 458.202 717.143 458.435 719.423 L 460.461 719.777 L 460.671 718.931 C 463.304 717.052 479.556 718.906 482.025 720.609 C 479.391 721.69 477.051 722.939 474.525 724.235 L 474.334 726.144 L 471.582 724.203 L 471.53 726.717 C 467.513 726.446 469.224 723.644 464.789 722.985 C 452.085 719.382 439.432 720.626 426.318 720.716 L 425.81 720.175 C 434.523 718.353 438.208 719.301 446.217 718.051 L 446.397 717.761 L 443.637 718.216 C 446.489 713.199 449.265 713.936 454.671 713.023 z"/>
<path transform="translate(0,0)" fill="rgb(218,226,244)" d="M 1893.75 699.122 C 1905.24 697.857 1924.7 705.64 1935.97 701.587 L 1936.86 702.373 C 1933.61 705.201 1923.61 704.615 1918.98 704.671 C 1923.1 705.688 1924.99 705.55 1929.25 705.512 C 1929.94 705.511 1931.59 705.775 1932.37 705.874 C 1931.42 706.381 1930.48 706.898 1929.54 707.426 L 1930.89 709.67 C 1929.41 710.14 1927.98 711.584 1926.74 712.647 C 1925.48 711.977 1924.38 711.616 1923.75 710.395 L 1926.22 710.072 L 1926.28 709.193 C 1916.65 706.153 1899.22 704.563 1894.46 701.902 L 1893.75 699.122 z"/>
<path transform="translate(0,0)" fill="rgb(191,207,239)" d="M 867.812 841.452 C 870.558 840.559 873.574 841.228 875.685 843.199 C 877.796 845.171 878.669 848.134 877.964 850.936 C 877.26 853.737 875.089 855.934 872.296 856.673 C 868.142 857.771 863.869 855.364 862.654 851.243 C 861.44 847.121 863.726 842.782 867.812 841.452 z"/>
<path transform="translate(0,0)" fill="rgb(182,202,240)" d="M 1893.29 674.257 C 1903.96 674.379 1921.65 682.294 1931.09 687.568 C 1934.71 689.592 1934.07 689.696 1935.02 693.369 C 1922.36 689.409 1909.78 682.14 1896.76 678.503 C 1894.28 677.807 1894.01 676.367 1893.29 674.257 z"/>
<path transform="translate(0,0)" fill="rgb(207,219,242)" d="M 418.757 851.509 L 420.424 851.234 L 421.475 852.461 L 420.998 854.017 C 416.099 856.404 412 856.101 406.832 857.331 C 392.462 860.75 381.162 863.554 367.214 868.353 L 364.658 869.132 L 363.854 868.295 C 369.286 861.851 409.378 853.383 418.757 851.509 z"/>
<path transform="translate(0,0)" fill="rgb(182,202,240)" d="M 359.935 867.154 C 360.178 867.445 360.488 868.694 360.622 869.133 C 357.08 871.668 330.849 880.345 324.915 882.465 C 309.358 887.874 293.971 893.756 278.775 900.106 C 277.777 899.272 276.765 898.456 275.739 897.658 C 279.338 894.729 280.81 896.97 287.274 894.343 C 310.571 884.878 337.111 877.43 359.935 867.154 z"/>
<path transform="translate(0,0)" fill="rgb(253,253,253)" d="M 724.618 886.585 C 729.271 886.34 732.73 887.662 733.601 892.42 C 732.873 896.177 731.147 897.601 728.569 900.446 C 723.443 900.427 720.482 897.885 719.536 893.055 C 720.978 888.797 720.793 889.893 724.618 886.585 z"/>
<path transform="translate(0,0)" fill="rgb(238,239,244)" d="M 1578.71 563.406 C 1584.76 561.815 1618.63 563.461 1623.03 565.674 L 1622.57 567.006 C 1617.95 569.431 1616.38 569.439 1612.38 566.409 C 1606.27 562.515 1569.68 567.515 1566.93 566.074 C 1571.91 563.58 1573.06 563.601 1578.71 563.406 z"/>
<path transform="translate(0,0)" fill="rgb(207,219,242)" d="M 926.333 792.813 C 930.496 792.597 928.949 792.157 932.41 795.081 C 931.022 797.004 913.252 804.68 909.763 806.183 C 907.193 807.36 905.752 808.185 902.883 808.492 L 912.145 803.46 C 912.33 794.531 919.198 794.236 926.333 792.813 z"/>
<path transform="translate(0,0)" fill="rgb(238,239,244)" d="M 1421.17 845.183 C 1427.42 840.508 1457.74 825.226 1465.53 825.049 C 1463.34 827.654 1422.03 847.669 1419.05 847.538 L 1421.17 845.183 z"/>
<path transform="translate(0,0)" fill="rgb(182,202,240)" d="M 1478.76 638.764 C 1480.8 637.398 1483.43 637.272 1485.59 638.437 C 1487.76 639.602 1489.1 641.867 1489.08 644.324 C 1489.06 646.781 1487.69 649.026 1485.51 650.16 C 1482.39 651.786 1478.54 650.687 1476.74 647.657 C 1474.95 644.626 1475.83 640.722 1478.76 638.764 z"/>
<path transform="translate(0,0)" fill="rgb(238,239,244)" d="M 1275.71 902.066 L 1276.43 902.594 C 1276.41 908.483 1245.96 907.3 1237.6 917.569 C 1237.64 914.188 1237.29 908.936 1240.48 907.164 C 1246.75 909.702 1268.28 904.033 1275.71 902.066 z"/>
<path transform="translate(0,0)" fill="rgb(238,239,244)" d="M 882.517 689.339 C 888.685 686.788 897.885 689.493 903.935 690.558 C 901.588 692.176 895.519 690.775 890.762 691.686 C 890.413 692.862 890.229 693.48 890.038 694.701 L 889.899 695.615 L 887.077 696.652 C 881.516 690.798 876.129 693.221 866.305 692.95 L 866.713 692.411 C 872.039 690.396 876.893 690.044 882.517 689.339 z"/>
<path transform="translate(0,0)" fill="rgb(253,193,119)" d="M 1968.97 478.396 C 1973.8 480.298 1974.95 480.694 1976.05 485.939 C 1975.34 489.748 1974.18 490.595 1971.47 493.367 C 1961.59 490.455 1963.92 484.21 1968.97 478.396 z"/>
<path transform="translate(0,0)" fill="rgb(238,239,244)" d="M 356.869 735.782 L 358.39 737.382 C 353.175 742.249 340.992 747.031 334.022 747.885 L 332.775 745.941 C 336.009 742.241 352.142 736.064 356.869 735.782 z"/>
<path transform="translate(0,0)" fill="rgb(218,226,244)" d="M 1338.36 634.149 C 1340.26 634.005 1339.45 633.738 1340.89 634.928 C 1339.36 638.229 1334.06 641.375 1330.89 643.634 C 1329.73 649.109 1328.98 650.042 1325.34 654.333 C 1325.04 654.428 1323.91 654.117 1323.52 654.036 C 1322.68 650.87 1324.96 645.737 1326.09 642.334 C 1330.14 639.552 1334.23 636.823 1338.36 634.149 z"/>
<path transform="translate(0,0)" fill="rgb(253,253,253)" d="M 1018.38 782.087 C 1022.7 782.31 1025.47 781.756 1027.56 785.78 C 1027.09 788.882 1024.84 790.906 1022.74 793.325 C 1017.85 791.879 1013.27 789.363 1015.19 783.567 L 1018.38 782.087 z"/>
<path transform="translate(0,0)" fill="rgb(238,239,244)" d="M 589.71 902.223 C 593.921 901.686 620.404 906.379 622.28 910.095 C 621.703 910.586 620.194 911.804 619.62 911.736 C 613.314 910.989 594.423 905.016 589.71 902.223 z"/>
<path transform="translate(0,0)" fill="rgb(182,202,240)" d="M 1861.49 660.349 C 1866.86 658.738 1882.6 660.398 1887.15 663.983 C 1887.86 666.166 1887.7 666.434 1887.35 668.776 C 1883.39 670.497 1871.11 661.302 1861.49 660.349 z"/>
<path transform="translate(0,0)" fill="rgb(238,239,244)" d="M 576.998 888.47 C 582.399 888.563 590.083 888.374 595.135 889.655 L 595.733 891.102 L 593.758 892.398 L 594.62 894.341 L 594.561 895.521 C 587.624 895.556 583.441 893.648 577.444 890.365 L 576.998 888.47 z"/>
<path transform="translate(0,0)" fill="rgb(182,202,240)" d="M 1220.73 659.935 C 1223.94 660.891 1226.97 661.29 1228.64 664.062 C 1229.38 666.985 1228.13 669.117 1226.96 671.888 C 1222.2 671.631 1221.42 671.391 1218.97 667.658 C 1218.76 663.909 1219.17 663.287 1220.73 659.935 z"/>
<path transform="translate(0,0)" fill="rgb(238,239,244)" d="M 1933.64 569.719 C 1939.46 571.006 1935.39 574.11 1941.36 576.951 C 1940.49 577.5 1918.46 580.29 1915.2 580.955 C 1912.94 581.203 1912.44 581.158 1910.16 580.939 C 1910.94 577.445 1930.64 578.327 1934.37 575.13 C 1934.18 573.165 1933.98 571.663 1933.64 569.719 z"/>
<path transform="translate(0,0)" fill="rgb(253,253,253)" d="M 345.112 839.581 C 346.682 838.527 348.704 838.413 350.383 839.285 C 352.062 840.157 353.132 841.876 353.173 843.768 C 353.213 845.659 352.219 847.423 350.579 848.366 C 348.161 849.758 345.076 848.983 343.602 846.615 C 342.128 844.247 342.795 841.136 345.112 839.581 z"/>
<path transform="translate(0,0)" fill="rgb(238,239,244)" d="M 1523.91 804.512 C 1524.44 804.774 1525.64 805.761 1526.18 806.177 C 1523.46 809.9 1500.35 818.944 1494.3 821.735 C 1493.02 821.6 1493.59 821.826 1492.66 820.828 C 1496.66 816.354 1516.98 811.487 1523.91 804.512 z"/>
<path transform="translate(0,0)" fill="rgb(218,226,244)" d="M 1443.8 778.275 L 1446.58 778.203 C 1441.51 784.456 1414.84 785.17 1407.21 785.344 C 1406.28 785.792 1406.72 785.6 1405.33 785.289 C 1409.29 780.851 1422.01 784.084 1428.4 782.565 C 1433.84 781.271 1438.47 779.908 1443.8 778.275 z"/>
<path transform="translate(0,0)" fill="rgb(238,239,244)" d="M 420.156 898.537 C 426.951 897.496 438.653 897.757 445.756 897.635 C 450.251 897.558 452.095 897.265 454.647 899.932 C 446.008 900.05 431.329 900.952 422.233 900.403 C 421.425 899.677 420.733 899.055 420.156 898.537 z"/>
<path transform="translate(0,0)" fill="rgb(218,226,244)" d="M 1060.54 757.334 C 1067.08 756.126 1091.01 761.299 1096.97 764.851 C 1092.29 764.955 1064.94 759.4 1060.54 757.334 z"/>
<path transform="translate(0,0)" fill="rgb(238,239,244)" d="M 581.461 746.44 C 589.623 746.733 599.773 745.666 604.9 752.696 C 599.932 752.333 584.502 749.828 581.461 746.44 z"/>
<path transform="translate(0,0)" fill="rgb(253,253,253)" d="M 1419.05 847.538 C 1416.59 849.275 1416.12 849.658 1413.25 850.501 C 1410.2 849.563 1411.19 850.349 1409.58 847.542 C 1410.73 844.355 1409.95 845.511 1412.97 843.269 C 1417.35 842.742 1416.56 843.19 1421.17 845.183 L 1419.05 847.538 z"/>
<path transform="translate(0,0)" fill="rgb(238,239,244)" d="M 405.359 894.23 C 406.132 894.262 406.616 894.662 407.417 895.071 C 406.284 896.815 388.115 900.539 383.365 901.922 C 382.211 901.841 382.777 901.941 381.66 901.101 C 384.714 897.664 400.042 895.275 405.359 894.23 z"/>
<path transform="translate(0,0)" fill="rgb(207,219,242)" d="M 1939.29 860.92 C 1943.82 860.344 1952.83 868.001 1954.58 872.143 C 1950.02 869.644 1940.46 865.691 1939.29 860.92 z"/>
<path transform="translate(0,0)" fill="rgb(238,239,244)" d="M 2031.49 511.505 C 2038.33 517.439 2020.43 524.901 2016.5 526.302 L 2016.01 525.921 C 2016.78 521.881 2025.61 525.444 2031.49 511.505 z"/>
<path transform="translate(0,0)" fill="rgb(218,226,244)" d="M 1449.38 761.842 C 1450.29 762.01 1449.86 761.894 1450.68 762.806 C 1448.71 764.749 1433.27 768.932 1429.21 770.265 L 1427.64 769.804 C 1429.2 767.667 1445.79 762.963 1449.38 761.842 z"/>
<path transform="translate(0,0)" fill="rgb(238,239,244)" d="M 488.451 889.486 C 494.966 888.386 511.791 889.02 518.292 890 C 507.399 889.525 496.366 893.188 488.451 889.486 z"/>
<path transform="translate(0,0)" fill="rgb(238,239,244)" d="M 1711.76 735.29 C 1713.21 734.843 1718.37 734.96 1720.04 735.006 L 1719.67 736.684 L 1720.58 735.826 C 1718.03 737.987 1713.7 737.818 1710.22 738.062 C 1707.1 738.778 1705.7 739.217 1702.46 739.128 C 1704.29 737.093 1708.91 736.138 1711.76 735.29 z"/>
<path transform="translate(0,0)" fill="rgb(238,239,244)" d="M 515.929 761.792 C 519.686 763.131 525.509 765.212 527.313 768.742 L 525.762 769.481 C 523.031 768.6 518.332 763.928 515.929 761.792 z"/>
<path transform="translate(0,0)" fill="rgb(218,226,244)" d="M 1164.79 682.112 L 1166.53 682.56 C 1164.88 684.742 1160.72 685.751 1157.77 686.878 L 1155.92 685.364 C 1157.56 683.58 1162.04 682.864 1164.79 682.112 z"/>
<path transform="translate(0,0)" fill="rgb(238,239,244)" d="M 1557.1 712.122 L 1557.46 713.368 L 1544.93 720.996 L 1544.26 720.123 C 1545.69 717.022 1553.62 713.841 1557.1 712.122 z"/>
<path transform="translate(0,0)" fill="rgb(207,219,242)" d="M 1392.61 684.843 C 1396.88 684.65 1397.57 684.563 1401.49 686.173 L 1401.29 687.316 L 1397.76 687.857 L 1395.86 687.679 L 1393.83 690.25 L 1393.42 689.974 L 1393.97 688.745 L 1392.49 687.194 L 1392.61 684.843 z"/>
<path transform="translate(0,0)" fill="rgb(238,239,244)" d="M 1495.19 579.055 L 1496.02 580.481 C 1494.4 582.745 1489.94 583.97 1487.1 585.038 L 1486.19 583.903 C 1487.39 581.801 1492.62 580.121 1495.19 579.055 z"/>
<path transform="translate(0,0)" fill="rgb(238,239,244)" d="M 466.218 731.784 C 468.804 731.187 475.852 733.786 478.583 734.748 C 473.647 734.725 471.866 734.476 467.009 733.519 L 466.218 731.784 z"/>
<path transform="translate(0,0)" fill="rgb(191,207,239)" d="M 44.4819 482.831 C 42.2638 476.922 43.7966 476.122 47.8108 471.656 C 49.0238 478.061 63.6792 477.159 65.9138 472.792 C 68.2921 475.854 69.9587 476.993 68.9099 480.884 C 64.9258 495.412 72.7762 500.432 80.1329 511.249 C 81.0979 512.537 79.7648 521.925 81.3915 522.241 C 89.5906 523.833 87.8738 529.438 86.5954 536.941 C 84.8106 547.418 85.0966 572.215 93.6805 580.071 L 93.8155 584.516 C 96.5953 583.616 95.529 583.819 99.0278 584.842 L 100.438 584.044 C 103.936 570.987 106.659 568.987 117.446 561.184 C 117.411 555.793 119.19 552.584 120.389 546.933 C 122.082 538.949 122.554 534.159 122.966 525.991 C 124.223 531.249 125.885 544.488 127.079 550.872 L 126.005 549.932 C 130.548 554.527 127.613 557.796 129.933 560.745 C 133.294 565.019 139.896 568.027 143.225 573.176 C 147.306 579.489 145.405 588.437 148.581 594.424 C 149.941 594.055 150.406 593.955 151.804 593.786 C 153.25 598.354 148.144 613.806 150.007 620.421 C 151.611 626.113 153.536 623.576 156.81 625.815 C 142.859 630.488 150.088 603.239 150.662 596.157 C 140.103 593.411 149.868 583.279 140.762 573.194 C 136.904 572.4 136.642 574.69 131.373 575.917 L 130.305 574.689 C 133.012 573.266 135.264 572.409 137.118 570.028 L 136.517 568.637 L 131.045 566.919 C 128.833 564.777 128.295 562.031 127.368 559.066 C 117.439 558.93 107.85 570.83 103.699 579.22 C 101.351 583.966 105.821 595.775 97.8237 596.543 C 90.2486 593.978 93.2131 590.345 91.248 584.841 C 87.8539 575.334 86.2702 562.255 81.8212 553.466 L 80.469 553.359 C 77.4013 558.335 80.4962 559.715 78.1591 565.259 C 72.6505 568.21 37.0946 567.445 32.2629 561.82 L 33.5871 560.886 C 34.5761 558.384 33.5676 544.292 34.2967 539.296 L 36.2229 537.975 C 39.1222 541.355 37.9113 551.949 37.7192 556.733 C 37.0813 553.088 36.515 549.432 36.0205 545.765 C 33.1383 553.404 35.3191 564.149 44.7206 563.995 C 50.6648 563.898 71.8853 564.575 75.5994 561.761 C 77.4241 557.299 76.6134 548.809 76.5425 543.575 L 77.5554 543.336 C 78.0327 546.433 77.7513 548.915 79.6507 550.497 L 80.1424 545.604 L 80.9295 545.229 C 81.2781 547.984 81.2017 549.17 82.7316 551.506 L 83.8773 551.343 C 83.5815 545.111 84.6152 535.704 85.1436 529.241 C 83.8162 529.967 83.5228 529.879 82.0257 530.161 C 79.1522 529.285 78.5492 529.215 76.6814 526.918 C 77.8498 525.975 81.8821 527.207 85.131 527.19 L 86.0133 526.073 C 83.2838 522.57 78.5812 526.015 78.991 518.005 C 79.3641 510.714 77.5172 510.756 73.1205 505.54 C 70.5035 506.927 69.4453 507.61 66.4577 508.225 L 66.0648 507.156 C 67.86 505.975 69.6714 504.818 71.4987 503.688 C 63.1365 502.999 55.8898 504.45 47.6015 504.362 C 45.1975 504.336 44.5146 503.108 41.4557 502.792 C 39.5417 504.624 38.4306 505.283 37.9513 507.847 L 41.2514 508.51 C 41.811 510.576 39.4169 513.699 38.7406 516.627 L 34.9211 518.537 L 34.648 520.036 C 44.6781 520.947 63.1346 520.079 71.3412 521.887 C 63.7108 522.992 40.5765 522.712 32.7463 521.811 C 30.3353 518.938 30.9195 517.822 30.274 513.457 L 30.3609 511.61 C 35.3491 507.48 43.5177 498.445 44.6976 492.031 L 44.4819 482.831 z"/>
<path transform="translate(0,0)" fill="rgb(238,239,244)" d="M 93.8155 584.516 C 96.5953 583.616 95.529 583.819 99.0278 584.842 L 100.438 584.044 C 100.708 589.004 101.437 588.696 99.4397 592.521 L 99.9605 592.909 L 100.822 590.981 L 100.271 593.665 C 97.7012 592.908 96.9799 593.03 94.5075 594.035 C 92.9633 591.7 93.7039 587.782 93.8155 584.516 z"/>
<path transform="translate(0,0)" fill="rgb(229,234,247)" d="M 44.4819 482.831 L 45.9297 481.651 L 48.1479 482.417 C 49.5982 485.927 49.2267 484.756 48.8044 488.73 C 46.2824 492.18 46.4574 490.209 44.6976 492.031 L 44.4819 482.831 z"/>
<path transform="translate(0,0)" fill="rgb(218,226,244)" d="M 30.274 513.457 C 30.9195 517.822 30.3353 518.938 32.7463 521.811 C 40.5765 522.712 63.7108 522.992 71.3412 521.887 L 72.6975 521.292 L 74.8293 522.467 C 71.3359 524.767 51.91 523.131 46.0844 527.024 C 46.3977 530.364 46.3187 531.854 47.9963 534.773 C 51.7862 532.312 51.7362 531.397 55.8631 531.12 C 59.1486 532.78 59.8804 533.34 62.7216 535.657 C 63.3468 533.082 63.2042 531.382 64.918 530.144 C 65.4968 531.675 64.0703 553.259 63.6559 556.747 C 60.5472 557.56 61.5128 557.809 59.2156 556.633 C 58.9155 553.331 59.8084 550.085 58.3618 548.685 C 56.1487 551.989 50.8313 560.806 47.5437 561.889 L 46.8192 560.928 C 48.2683 557.114 51.5028 554.424 51.3138 551.077 C 50.855 542.947 47.9331 543.279 54.1207 537.664 L 56.2888 537.651 C 56.9242 538.48 58.8513 541.3 59.5544 541.523 C 60.4244 538.461 60.4509 539.785 58.9915 536.394 C 53.4485 532.643 49.8854 535.224 44.6481 538.511 C 42.8801 536.154 43.4518 527.04 43.51 523.49 C 38.1836 523.497 31.2466 523.138 26.2856 524.614 C 22.8668 528.123 27.5074 532.645 27.0482 537.752 C 26.1092 548.196 30.699 561.174 22.3362 569.025 C 21.52 572.308 21.3228 572.869 21.8301 576.29 C 24.0056 576.418 26.1794 576.57 28.3513 576.748 L 28.7333 577.788 C 24.4888 578.11 22.3505 578.106 18.3731 579.569 C 16.4609 582.618 20.8156 599.967 17.6579 608.213 C 13.9374 604.527 13.4786 590.079 10.4069 581.834 L 11.7177 580.512 C 15.2237 587.179 16.5178 594.525 16.4273 601.977 C 16.8 597.755 17.1063 593.745 17.0575 589.484 C 17.0096 585.298 14.4745 581.672 15.6382 578.046 L 19.4731 576.774 C 21.9165 573.389 19.371 567.394 20.8558 566.131 C 33.2125 555.612 20.7791 534.256 24.15 524.152 L 28.4133 522.18 C 30.9524 518.582 30.1156 518.682 30.274 513.457 z"/>
<path transform="translate(0,0)" fill="rgb(182,202,240)" d="M 0 560.382 C 5.78003 566.016 8.52162 573.165 11.7177 580.512 L 10.4069 581.834 C 7.24394 581.701 6.68595 583.026 3.56075 585.321 C 2.31746 601.295 5.09989 695.262 1.84982 698.926 L 0 699.249 L 0 560.382 z"/>
<path transform="translate(0,0)" fill="rgb(182,202,240)" d="M 52.6228 464.784 L 60.7512 464.729 C 62.762 467.606 64.238 469.709 65.9138 472.792 C 63.6792 477.159 49.0238 478.061 47.8108 471.656 C 49.4745 468.977 50.7082 467.282 52.6228 464.784 z"/>
<path transform="translate(0,0)" fill="rgb(182,202,240)" d="M 55.8946 442.561 L 58.4324 445.702 L 58.4873 446.189 C 58.9097 450.146 60.9404 462.161 60.7512 464.729 L 52.6228 464.784 C 52.8366 460.057 55.0887 447.838 55.8946 442.561 z"/>
<path transform="translate(0,0)" fill="rgb(238,239,244)" d="M 55.8946 442.561 C 55.8498 439.865 55.4298 436.312 56.5942 434.085 C 57.939 438.434 58.0565 441.24 58.4324 445.702 L 55.8946 442.561 z"/>
<path transform="translate(0,0)" fill="rgb(191,207,239)" d="M 329.645 530.57 L 331.445 530.006 C 340.736 537.522 335.951 534.264 340.052 542.214 C 359.271 546.102 364.939 565.951 365.459 582.866 L 368.442 583.2 C 370.793 586.938 366.805 591.797 365.245 595.948 L 367.326 597.636 C 369.411 595.488 372.208 592.673 374.502 590.727 C 375.41 589.956 373.12 588.141 376.458 586.869 C 379.531 589.319 382.884 595.914 385.088 599.551 C 385.198 602.089 385.283 603.615 385.018 606.197 L 386.196 608.317 C 387.942 608.745 389.935 609.064 391.444 609.911 L 391.229 617.302 C 388.614 618.517 388.121 618.581 385.249 618.947 C 379.325 619.708 374.448 620.209 368.486 620.568 C 367.662 623.91 366.95 627.279 366.351 630.669 L 365.061 629.89 C 364.609 624.244 366.172 623.261 363.675 619.674 L 362.238 621.995 C 347.757 623.495 350.437 617.214 338.786 622.509 L 337.742 624.235 C 338.61 626.496 341.831 632.726 341.698 634.182 C 340.635 645.787 335.317 642.176 343.609 651.298 C 347.261 652.5 348.74 652.272 352.558 652.107 C 359.195 647.285 350.827 637.657 351.641 630.158 L 353.199 629.011 L 355.553 629.53 C 357.477 636.544 358.807 650.392 356.248 657.179 L 355.023 658.392 C 351.733 657.415 347.997 651.952 341.291 655.301 C 341.194 656.993 341.276 658.812 340.448 660.232 C 337.533 657.606 337.519 641.309 333.41 640.573 C 314.332 637.159 321.087 661.506 317.081 667.191 L 316.125 666.519 C 316.127 657.958 316.482 647.987 315.172 639.566 C 314.269 633.765 309.989 627.525 311.406 622.312 C 316.63 618.217 336.525 620.545 344.847 618.781 C 337.308 618.17 312.973 620.797 309.747 618.571 C 313.839 616.676 318.487 619.434 321.911 617.546 C 320.248 616.24 317.936 616.601 317.892 616.534 C 313.524 609.886 308.613 610.071 303.707 616.946 C 303.017 617.922 302.347 618.912 301.7 619.917 C 300.552 618.771 300.129 618.284 299.127 617.004 C 296.277 619.921 296.668 620.44 293.283 621.288 L 290.106 619.747 L 289.209 620.07 L 287.91 617.843 C 289.405 615.215 290.706 614.241 292.9 612.257 L 291.98 611.31 L 288.372 611.356 C 286.624 614.453 287.684 613.595 284.473 614.669 C 278.179 611.652 278.69 609.501 270.807 612.158 C 267.405 615.64 270.229 624.217 266.528 624.917 L 264.543 625.311 C 259.465 626.336 255.136 629.576 250.696 629.577 L 249.055 628.399 L 248.923 626.223 L 252.522 625.705 L 251.856 624.125 L 248.926 623.302 C 253.63 618.596 261.473 622.644 264.734 620.795 C 256.986 619.839 252.838 619.845 244.986 620 C 245.104 640.12 255.575 628.256 262.771 632.048 C 264.75 636.038 263.802 642.864 259.514 645.35 C 254.778 644.881 250.917 642.557 247.854 643.846 C 243.49 647.896 244.379 656.413 248.752 660.578 C 246.771 662.672 245.09 661.026 245.012 661.677 C 244.414 666.674 245.698 681.368 244.45 685.004 C 241.55 680.417 244.154 649.927 244.035 640.857 C 240.073 642.729 239.938 643.544 236.126 643.277 C 227.92 631.124 242.123 633.779 241.487 622.992 C 241.185 617.88 244.67 616.107 242.761 610.998 C 243.18 603.359 245.53 600.456 251.27 595.469 L 250.927 596.119 C 254.185 597.509 254.769 601.08 257.86 605.29 C 257.472 608.721 256.287 614.287 258.118 616.885 C 260.78 618.454 263.851 618.19 266.999 618.272 C 268.724 613.831 266.484 613.927 268.426 610.647 L 271.551 609.9 C 274.246 607.254 272.119 600.878 273.282 599.564 C 278.491 593.681 280.187 591.879 283.774 584.729 L 285.113 585.472 C 284.911 593.399 286.933 590.29 293.886 597.841 L 295.829 593.952 C 294.877 588.989 293.388 589.468 291.035 585.282 C 292.803 583.069 293.418 583.559 296.748 582.77 C 290.937 562.569 305.662 549.822 321.234 541.059 C 321.926 534.529 324.428 534.006 329.645 530.57 z"/>
<path transform="translate(0,0)" fill="rgb(207,219,242)" d="M 329.645 530.57 L 331.445 530.006 C 340.736 537.522 335.951 534.264 340.052 542.214 C 359.271 546.102 364.939 565.951 365.459 582.866 C 354.887 579.21 336.757 579.504 324.956 578.806 C 320.464 579.066 315.048 579.199 310.718 580.11 C 306.052 580.947 301.395 581.834 296.748 582.77 C 290.937 562.569 305.662 549.822 321.234 541.059 C 321.926 534.529 324.428 534.006 329.645 530.57 z"/>
<path transform="translate(0,0)" fill="rgb(182,202,240)" d="M 329.645 530.57 L 331.445 530.006 C 340.736 537.522 335.951 534.264 340.052 542.214 C 334.555 544.753 326.911 541.616 321.234 541.059 C 321.926 534.529 324.428 534.006 329.645 530.57 z"/>
<path transform="translate(0,0)" fill="rgb(218,226,244)" d="M 310.718 580.11 L 313.609 577.725 C 318.254 576.688 319.373 576.325 323.988 577.185 L 324.956 578.806 C 320.464 579.066 315.048 579.199 310.718 580.11 z"/>
<path transform="translate(0,0)" fill="rgb(218,226,244)" d="M 242.761 610.998 C 243.18 603.359 245.53 600.456 251.27 595.469 L 250.927 596.119 C 254.185 597.509 254.769 601.08 257.86 605.29 C 257.472 608.721 256.287 614.287 258.118 616.885 C 260.78 618.454 263.851 618.19 266.999 618.272 C 261.821 620.024 250.027 618.414 244.029 617.876 C 247.865 617.319 247.2 617.969 249.834 615.741 C 249.755 613.458 249.751 614.165 247.663 611.989 C 245.63 611.989 245.335 611.818 243.344 611.187 L 242.761 610.998 z"/>
<path transform="translate(0,0)" fill="rgb(238,239,244)" d="M 242.761 610.998 L 243.344 611.187 C 245.335 611.818 245.63 611.989 247.663 611.989 C 249.751 614.165 249.755 613.458 249.834 615.741 C 247.2 617.969 247.865 617.319 244.029 617.876 C 242.902 621.492 243.986 635.712 244.035 640.857 C 240.073 642.729 239.938 643.544 236.126 643.277 C 227.92 631.124 242.123 633.779 241.487 622.992 C 241.185 617.88 244.67 616.107 242.761 610.998 z"/>
<path transform="translate(0,0)" fill="rgb(182,202,240)" d="M 385.018 606.197 L 386.196 608.317 C 387.942 608.745 389.935 609.064 391.444 609.911 C 387.837 610.688 382.061 610.722 379.204 612.038 C 378.749 614.303 378.507 615.417 377.716 617.583 C 373.489 618.981 372.172 618.196 369.209 615.421 C 368.171 611.759 368.088 613.213 369.279 609.869 C 371.213 608.53 380.038 607.873 385.018 606.197 z"/>
<path transform="translate(0,0)" fill="rgb(218,226,244)" d="M 365.245 595.948 L 367.326 597.636 C 367.572 600.667 368.191 603.676 365.744 605.567 C 363.413 603.838 364.203 604.633 362.875 601.5 C 363.367 597.446 362.697 598.887 365.245 595.948 z"/>
<path transform="translate(0,0)" fill="rgb(238,239,244)" d="M 295.829 593.952 C 296.061 597.936 296.61 601.678 295.062 605.347 C 293.733 603.761 293.892 600.13 293.886 597.841 L 295.829 593.952 z"/>
<path transform="translate(0,0)" fill="rgb(207,219,242)" d="M 325.644 592.982 C 327.289 592.518 326.419 592.527 328.288 593.453 C 328.634 596.348 328.791 597.011 328.14 599.83 C 325.751 602.622 321.657 602.587 316.542 605.398 C 314.708 601.819 313.516 598.936 315.16 595.161 C 320.516 592.455 320.516 595.277 325.644 592.982 z"/>
<path transform="translate(0,0)" fill="rgb(238,239,244)" d="M 257.704 631.316 C 259.622 631.869 259.725 632.077 261.261 633.431 C 262.867 637.214 263.195 642.288 259.972 645.32 C 258.631 645.082 257.916 644.534 256.755 643.843 C 254.985 639.517 256.08 635.524 257.704 631.316 z"/>
<path transform="translate(0,0)" fill="rgb(238,239,244)" d="M 342.083 590.645 C 343.916 591.369 344.124 591.844 345.461 593.385 C 346.59 597.086 345.934 599.327 345.31 603.145 C 339.079 600.017 340.576 596.742 342.083 590.645 z"/>
<path transform="translate(0,0)" fill="rgb(238,239,244)" d="M 301.058 593.545 C 305.594 597.629 304.472 601.518 301.453 606.056 C 296.804 603.249 298.749 597.49 301.058 593.545 z"/>
<path transform="translate(0,0)" fill="rgb(238,239,244)" d="M 309.255 592.444 L 311.529 593.719 C 313.245 596.945 312.251 600.434 311.687 604.131 L 308.745 603.553 C 306.67 599.87 308.048 596.223 309.255 592.444 z"/>
<path transform="translate(0,0)" fill="rgb(253,253,253)" d="M 333.219 591.337 L 336.187 592.831 C 337.918 595.921 337.059 599.657 336.656 603.27 C 334.595 602.464 334.524 602.419 332.912 600.877 C 331.569 597.935 332.622 594.641 333.219 591.337 z"/>
<path transform="translate(0,0)" fill="rgb(238,239,244)" d="M 350.67 592.338 L 353.367 594.18 C 355.133 597.44 354.214 600.624 353.676 604.36 L 350.847 602.181 C 349.177 599.042 350.115 595.927 350.67 592.338 z"/>
<path transform="translate(0,0)" fill="rgb(191,207,239)" d="M 592.029 556.32 C 596.678 551.767 604.495 547.96 610.385 544.746 C 610.393 540.968 609.782 540.436 611.453 537.662 L 612.897 537.444 C 615.205 539.67 614.736 544.742 615.123 545.018 C 621.778 549.765 628.598 552.409 635.16 557.537 L 638.342 559.544 C 638.82 562.018 639.227 563.835 639.892 566.276 C 641.998 567.618 642.423 567.605 644.906 568.18 L 644.986 570.986 C 645.204 575.661 644.369 576.166 646.854 578.76 L 651.568 579.722 C 650.963 582.504 651.333 583.032 649.526 584.801 L 649.144 588.586 L 647.94 597.087 C 647.891 600.25 647.589 612.505 648.104 614.966 C 650.08 624.404 652.749 648.016 649.514 657.127 C 647.321 650.175 650.122 646.302 647.377 640.284 C 647.262 640.03 646.877 638.343 646.807 638.049 L 650.072 632.395 C 649.215 629.284 646.43 618.065 644.172 616.678 C 642.798 618.47 642.408 619.039 641.421 621.066 C 636.255 620.927 637.051 618.478 633.042 617.618 L 630.237 621.947 C 625.507 618.85 628.098 615.26 624.509 612.141 C 622.124 613.962 622.925 624.631 623 628 C 618.151 628.086 604.595 629.078 601.406 625.924 C 601.732 623.853 601.713 623.752 602.924 622.093 L 602.083 620.23 C 593.152 617.864 588.463 624.587 583.025 618 C 581.969 613.717 582.164 609.391 582.151 604.979 L 580.131 604.656 C 577.692 608.68 579.889 613.686 578.352 616.706 C 578.582 612.962 579.071 610.879 577.199 608.324 C 577.073 601.938 576.932 590.982 575.541 585.078 C 574.318 584.124 574.132 582.86 573.631 581.336 L 574.723 579.572 L 578.163 579.107 C 580.655 576.701 579.463 573.149 580.321 568.623 C 582.124 567.774 583.051 567.153 584.44 565.722 L 584.927 561.394 C 586.178 558.564 589.166 557.65 592.029 556.32 z"/>
<path transform="translate(0,0)" fill="rgb(207,219,242)" d="M 592.029 556.32 C 596.678 551.767 604.495 547.96 610.385 544.746 C 610.393 540.968 609.782 540.436 611.453 537.662 L 612.897 537.444 C 615.205 539.67 614.736 544.742 615.123 545.018 C 621.778 549.765 628.598 552.409 635.16 557.537 L 638.342 559.544 C 638.82 562.018 639.227 563.835 639.892 566.276 C 641.998 567.618 642.423 567.605 644.906 568.18 L 644.986 570.986 C 645.204 575.661 644.369 576.166 646.854 578.76 L 651.568 579.722 C 647.464 579.455 644.477 580.527 640.507 580.47 C 633.039 580.362 625.623 579.887 618.143 579.807 C 605.625 579.674 590.457 580.68 578.163 579.107 C 580.655 576.701 579.463 573.149 580.321 568.623 C 582.124 567.774 583.051 567.153 584.44 565.722 L 584.927 561.394 C 586.178 558.564 589.166 557.65 592.029 556.32 z"/>
<path transform="translate(0,0)" fill="rgb(182,202,240)" d="M 592.029 556.32 C 596.678 551.767 604.495 547.96 610.385 544.746 C 610.393 540.968 609.782 540.436 611.453 537.662 L 612.897 537.444 C 615.205 539.67 614.736 544.742 615.123 545.018 C 621.778 549.765 628.598 552.409 635.16 557.537 C 629.219 558.995 604.572 558.039 597.061 557.861 C 594.568 557.729 594.32 557.469 592.029 556.32 z"/>
<path transform="translate(0,0)" fill="rgb(182,202,240)" d="M 644.986 570.986 C 635.282 572.297 592.747 571.736 583.849 570.182 L 584.44 569.358 C 596.577 566.356 630.2 568.168 644.906 568.18 L 644.986 570.986 z"/>
<path transform="translate(0,0)" fill="rgb(191,207,239)" d="M 584.44 565.722 L 584.927 561.394 C 586.178 558.564 589.166 557.65 592.029 556.32 C 594.32 557.469 594.568 557.729 597.061 557.861 L 593.456 559.18 C 594.657 560.428 594.375 560.881 594.787 562.942 L 593.883 564.566 C 590.279 565.461 588.155 565.511 584.44 565.722 z"/>
<path transform="translate(0,0)" fill="rgb(182,202,240)" d="M 575.541 585.078 C 574.318 584.124 574.132 582.86 573.631 581.336 L 574.723 579.572 L 578.163 579.107 C 590.457 580.68 605.625 579.674 618.143 579.807 C 625.623 579.887 633.039 580.362 640.507 580.47 C 644.477 580.527 647.464 579.455 651.568 579.722 C 650.963 582.504 651.333 583.032 649.526 584.801 C 624.784 584.352 600.289 583.616 575.541 585.078 z"/>
<path transform="translate(0,0)" fill="rgb(182,202,240)" d="M 647.94 597.087 C 643.131 594.862 641.412 594.304 640.599 588.829 L 642.145 587.236 C 645.579 587.032 646.123 587.321 649.144 588.586 L 647.94 597.087 z"/>
<path transform="translate(0,0)" fill="rgb(253,253,253)" d="M 603.98 601.851 C 601.302 601.065 600.961 600.951 599.225 598.786 L 599.871 596.721 C 604.31 593.972 607.384 594.119 612.385 594.908 C 617.077 597.763 619.517 598.833 621.802 603.978 C 620.838 608.684 621.289 610.656 621.903 615.479 L 621.832 626.383 L 602.842 626.934 C 603.111 618.576 603.781 610.482 603.98 601.851 z"/>
<path transform="translate(0,0)" fill="rgb(182,202,240)" d="M 603.98 601.851 C 601.302 601.065 600.961 600.951 599.225 598.786 L 599.871 596.721 C 604.31 593.972 607.384 594.119 612.385 594.908 C 608.612 597.334 606.666 598.318 603.98 601.851 z"/>
<path transform="translate(0,0)" fill="rgb(182,202,240)" d="M 638.624 601.145 L 640.377 602.061 C 641.614 608.932 641.707 612.333 640.318 619.155 L 639.199 620.305 L 637.774 619.117 L 637.528 615.508 C 635.458 614.825 634.61 614.697 632.446 614.355 C 632.483 617.155 632.532 617.597 631.203 620.036 L 630.033 619.582 C 628.383 613.879 628.794 609.708 628.931 603.814 L 630.914 600.759 L 631.73 601.525 L 638.624 601.145 z"/>
<path transform="translate(0,0)" fill="rgb(238,239,244)" d="M 630.914 600.759 L 631.73 601.525 C 631.85 605.021 631.878 611.115 632.446 614.355 C 632.483 617.155 632.532 617.597 631.203 620.036 L 630.033 619.582 C 628.383 613.879 628.794 609.708 628.931 603.814 L 630.914 600.759 z"/>
<path transform="translate(0,0)" fill="rgb(229,234,247)" d="M 638.624 601.145 L 640.377 602.061 C 641.614 608.932 641.707 612.333 640.318 619.155 L 639.199 620.305 L 637.774 619.117 L 637.528 615.508 C 638.212 611.542 638.383 605.319 638.624 601.145 z"/>
<path transform="translate(0,0)" fill="rgb(207,219,242)" d="M 621.802 603.978 C 623.387 600.689 622.047 598.816 625.103 595.474 C 628.392 596.383 628.295 597.466 630.914 600.759 L 628.931 603.814 C 624.391 604.784 624.319 603.966 622.241 606.847 C 622.192 609.726 622.08 612.604 621.903 615.479 C 621.289 610.656 620.838 608.684 621.802 603.978 z"/>
<path transform="translate(0,0)" fill="rgb(253,253,253)" d="M 584.245 600.433 C 589.051 602.144 586.893 616.111 586.668 620.541 C 581.892 618.96 583.968 604.614 584.245 600.433 z"/>
<path transform="translate(0,0)" fill="rgb(182,202,240)" d="M 630.359 587.468 C 634.409 587.515 635.243 587.035 637.944 589.072 C 638.941 592.011 637.319 595.293 636.261 598.333 L 635.932 598.408 C 633.362 597.581 633.76 593.168 630.359 587.468 z"/>
<path transform="translate(0,0)" fill="rgb(238,239,244)" d="M 593.999 601.438 C 597.076 603.141 596.043 615.782 597.255 620.825 L 595.09 620.07 C 592.995 617.144 593.882 605.719 593.999 601.438 z"/>
<path transform="translate(0,0)" fill="url(#Gradient1)" d="M 476.146 584.881 L 478.886 578.997 L 479.917 578.895 C 484.29 585.435 488.848 592.027 497.056 593.653 C 497.616 593.764 498.179 593.859 498.744 593.937 L 498.85 594.693 C 499.929 602.055 503.617 599.861 499.696 607.432 L 498.708 612.01 C 505.206 613.68 509.039 610.625 513.014 616.2 C 512.955 619.662 512.927 620.813 513.529 624.281 C 515.981 626.461 515.274 625.825 518.902 626.41 L 520.023 624.085 C 523.539 623.659 522.211 623.32 525.021 625.266 C 522.24 627.931 521.729 628.332 520.395 631.944 C 521.41 634.824 520.897 633.803 523.791 636.109 L 523.194 637.375 L 520.294 637.427 C 518.29 639.413 520.294 643.632 517.05 648.009 C 514.215 647.593 513.113 647.487 510.218 647.489 C 510.533 650.119 510.762 650.791 509.572 653.11 C 506.519 653.998 503.116 654.438 499.947 654.945 C 497.381 653.338 500.249 650.857 497.762 647.767 L 495.46 649.249 C 494.317 654.034 496.66 653.085 496.861 658.098 L 495.59 657.721 C 493.268 654.503 493.05 652.678 492.113 648.789 C 488.393 653.634 481.437 660.18 474.648 657.624 C 473.078 655.159 472.065 654.054 472.209 651.078 C 473.36 647.545 480.414 641.89 484.61 643.179 L 484.918 644.61 C 480.124 644.857 473.526 649.137 476.452 654.734 L 477.643 652.824 C 478.911 653.094 480.171 653.401 481.422 653.743 L 483.86 652.319 C 485.768 649.689 485.847 649.028 486.174 645.851 L 486.255 645.001 L 486.941 644.929 L 488.71 648.134 C 488.026 645.417 487.833 645.128 486.015 642.987 C 473.766 636.819 475.551 650.607 466.514 650.765 C 464.33 649.654 463.851 648.559 462.703 646.452 L 460.853 654.018 L 459.779 653.546 C 459.649 651.545 459.447 650.061 459.138 648.079 L 457.467 647.858 C 453.799 651.071 457.498 656.535 453.586 661.153 C 453.438 658.935 453.483 658.607 452.698 656.561 C 445.443 658.922 450.227 654.421 443.268 652.158 C 441.427 654.903 440.68 669.108 440.171 673.437 L 439.102 674.021 C 439.062 673.896 438.672 672.847 438.692 672.735 C 440.825 660.665 436.03 628.497 441.771 619.278 C 449.927 619.092 446.558 613.834 452.015 610.919 C 455.14 611.854 455.317 613.297 457.762 616.486 L 458.719 616.09 L 458.82 606.542 C 455.269 603.267 459.163 598.853 460.681 594.688 L 460.825 594.285 C 467.331 592.996 469.836 588.293 476.146 584.881 z"/>
<path transform="translate(0,0)" fill="rgb(207,219,242)" d="M 476.146 584.881 L 478.886 578.997 L 479.917 578.895 C 484.29 585.435 488.848 592.027 497.056 593.653 C 497.616 593.764 498.179 593.859 498.744 593.937 L 498.85 594.693 C 499.929 602.055 503.617 599.861 499.696 607.432 L 498.708 612.01 C 505.206 613.68 509.039 610.625 513.014 616.2 C 512.955 619.662 512.927 620.813 513.529 624.281 C 515.981 626.461 515.274 625.825 518.902 626.41 L 514.1 626.829 C 508.231 627.694 494.682 627.202 488.199 627.131 C 481.667 626.75 477.668 626.789 471.134 627.128 C 462.918 626.55 454.68 627.602 446.988 626.747 C 445.203 623.516 444.091 622.16 441.771 619.278 C 449.927 619.092 446.558 613.834 452.015 610.919 C 455.14 611.854 455.317 613.297 457.762 616.486 L 458.719 616.09 L 458.82 606.542 C 455.269 603.267 459.163 598.853 460.681 594.688 L 460.825 594.285 C 467.331 592.996 469.836 588.293 476.146 584.881 z"/>
<path transform="translate(0,0)" fill="rgb(191,207,239)" d="M 476.146 584.881 L 478.886 578.997 L 479.917 578.895 C 484.29 585.435 488.848 592.027 497.056 593.653 C 497.616 593.764 498.179 593.859 498.744 593.937 L 498.85 594.693 C 499.929 602.055 503.617 599.861 499.696 607.432 C 496.921 607.62 493.514 607.755 490.812 608.073 L 489.643 608.111 L 489.162 608.782 L 487.758 608.965 C 484.337 605.863 482.459 605.444 478.119 607.065 L 476.003 607.237 C 471.712 606.685 473.362 606.393 469.647 608.093 L 466.826 607.553 C 463.38 606.973 464.7 606.749 461.764 608.189 L 459.978 608.004 L 458.82 606.542 C 455.269 603.267 459.163 598.853 460.681 594.688 L 460.825 594.285 C 467.331 592.996 469.836 588.293 476.146 584.881 z"/>
<path transform="translate(0,0)" fill="rgb(207,219,242)" d="M 476.146 584.881 L 478.886 578.997 L 479.917 578.895 C 484.29 585.435 488.848 592.027 497.056 593.653 C 497.616 593.764 498.179 593.859 498.744 593.937 C 493.778 595.209 468.9 593.772 460.825 594.285 C 467.331 592.996 469.836 588.293 476.146 584.881 z"/>
<path transform="translate(0,0)" fill="rgb(238,239,244)" d="M 498.708 612.01 C 505.206 613.68 509.039 610.625 513.014 616.2 C 512.955 619.662 512.927 620.813 513.529 624.281 C 515.981 626.461 515.274 625.825 518.902 626.41 L 514.1 626.829 C 510.725 626.049 502.925 626.301 499.121 626.301 C 499.11 621.669 498.855 616.671 498.708 612.01 z"/>
<path transform="translate(0,0)" fill="rgb(238,239,244)" d="M 458.82 606.542 L 459.978 608.004 C 460.059 612.74 460.89 622.595 455.522 625.431 C 453.917 626.279 449.097 626.251 446.988 626.747 C 445.203 623.516 444.091 622.16 441.771 619.278 C 449.927 619.092 446.558 613.834 452.015 610.919 C 455.14 611.854 455.317 613.297 457.762 616.486 L 458.719 616.09 L 458.82 606.542 z"/>
<path transform="translate(0,0)" fill="rgb(253,253,253)" d="M 478.119 607.065 C 482.459 605.444 484.337 605.863 487.758 608.965 C 486.841 613.313 487.392 614.606 484.72 617.034 L 477.177 617.944 L 475.382 617.956 C 475.79 615.455 475.883 610.003 476.003 607.237 L 478.119 607.065 z"/>
<path transform="translate(0,0)" fill="rgb(218,226,244)" d="M 478.119 607.065 C 477.925 610.428 477.81 614.735 477.177 617.944 L 475.382 617.956 C 475.79 615.455 475.883 610.003 476.003 607.237 L 478.119 607.065 z"/>
<path transform="translate(0,0)" fill="rgb(253,253,253)" d="M 469.647 608.093 C 473.362 606.393 471.712 606.685 476.003 607.237 C 475.883 610.003 475.79 615.455 475.382 617.956 C 473.966 617.816 472.443 617.336 471.054 616.964 C 469.282 614.059 469.805 611.903 469.647 608.093 z"/>
<path transform="translate(0,0)" fill="rgb(238,239,244)" d="M 489.162 608.782 L 489.643 608.111 L 490.812 608.073 C 494.971 609.339 493.995 608.382 496.12 611.543 C 496.163 615.477 496.636 613.972 494.296 617.195 L 492.097 617.719 C 488.256 614.989 489.021 613.365 489.162 608.782 z"/>
<path transform="translate(0,0)" fill="rgb(253,253,253)" d="M 461.764 608.189 C 464.7 606.749 463.38 606.973 466.826 607.553 C 467.37 610.951 468.241 613.639 466.44 616.501 L 464.884 617.523 C 460.884 615.125 461.714 612.659 461.764 608.189 z"/>
<path transform="translate(0,0)" fill="rgb(191,207,239)" d="M 471.134 627.128 C 477.668 626.789 481.667 626.75 488.199 627.131 C 484.652 630.396 474.986 630.099 471.134 627.128 z"/>
<path transform="translate(0,0)" fill="rgb(218,226,244)" d="M 677.073 595.888 L 680.559 597.686 C 684.022 600.065 690.121 605.995 692.016 609.672 C 689.757 613.028 689.936 614.571 689.752 618.672 C 690.184 623.113 689.432 623.128 691.877 625.794 C 700.827 625.121 694.366 616.558 700.7 613.418 C 706.542 616.538 703.812 627.317 705.307 631.351 C 707.804 639.496 705.399 641.008 705.374 648.781 C 705.362 652.494 708.82 659.358 706.541 663.922 C 704.256 659.201 704.841 652.313 702.688 649.553 L 699.75 649.314 L 700.105 651.444 C 697.334 652.335 694.804 651.096 691.864 650.181 C 691.571 651.22 690.742 652.136 690.068 653.069 L 689.154 652.933 C 688.715 645.875 686.689 632.699 687.604 626.283 C 685.134 625.645 685.999 625.473 684.164 626.542 C 683.508 632.408 686.974 638.568 685.394 643.51 L 684.064 643.697 C 681.351 639.696 683.95 635.835 680.638 631.544 L 678.921 631.842 C 674.642 639.211 682.66 650.371 678.518 658.809 L 676.68 659.073 C 674.546 656.967 674.799 652.968 674.623 649.797 C 672.051 650.733 669.976 650.905 667.591 651.73 C 663.608 653.109 665.925 657.433 663.86 660.06 C 662.402 648.69 664.476 638.496 664.568 627.556 C 664.5 627.02 664.441 626.483 664.388 625.946 C 663.821 619.609 662.316 610.908 665.939 606.623 C 670.788 602.68 672.883 600.449 677.073 595.888 z"/>
<path transform="translate(0,0)" fill="rgb(207,219,242)" d="M 677.073 595.888 L 680.559 597.686 C 684.022 600.065 690.121 605.995 692.016 609.672 C 689.757 613.028 689.936 614.571 689.752 618.672 C 687.586 621.264 687.69 620.525 683.566 621.378 C 680.559 618.81 681.823 619.182 678.613 619.057 L 676.757 620.877 C 676.505 624.04 676.607 628.775 674.49 630.885 C 671.649 631.393 666.829 629.252 664.568 627.556 C 664.5 627.02 664.441 626.483 664.388 625.946 C 663.821 619.609 662.316 610.908 665.939 606.623 C 670.788 602.68 672.883 600.449 677.073 595.888 z"/>
<path transform="translate(0,0)" fill="rgb(191,207,239)" d="M 677.073 595.888 L 680.559 597.686 C 684.022 600.065 690.121 605.995 692.016 609.672 C 690.336 609.901 666.964 607.151 665.939 606.623 C 670.788 602.68 672.883 600.449 677.073 595.888 z"/>
<path transform="translate(0,0)" fill="rgb(238,239,244)" d="M 705.307 631.351 C 707.804 639.496 705.399 641.008 705.374 648.781 C 705.362 652.494 708.82 659.358 706.541 663.922 C 704.256 659.201 704.841 652.313 702.688 649.553 L 699.75 649.314 L 700.105 651.444 C 697.334 652.335 694.804 651.096 691.864 650.181 C 690.74 646.963 689.416 643.818 692.481 641.411 C 696.95 641.804 698.564 645.47 703.359 646.452 C 704.328 644.2 705.014 634.375 705.307 631.351 z"/>
<path transform="translate(0,0)" fill="rgb(238,239,244)" d="M 676.757 620.877 L 678.613 619.057 C 681.823 619.182 680.559 618.81 683.566 621.378 C 683.108 625.012 683.198 628.913 678.841 629.113 C 676.378 625.506 677.134 625.844 676.757 620.877 z"/>
<path transform="translate(0,0)" fill="rgb(207,219,242)" d="M 189.206 615.873 C 190.94 607.879 194.5 605.342 194.95 602.954 C 197.388 590.019 201.516 577.551 202.951 564.637 C 203.536 580.411 209.121 599.083 213.55 614.298 C 214.392 617.191 213.959 619.726 215.061 622.59 C 218.979 621.35 222.425 619.144 225.913 620.325 C 228.544 622.68 229.641 624.059 231.856 626.767 L 232.669 626.595 C 232.559 624.377 232.009 619.108 232.892 617.455 C 234.061 620.559 236.361 625.351 235.157 628.333 C 231.796 628.869 231.263 627.758 227.576 626.151 L 226.666 632.713 C 225.114 631.075 224.477 626.357 223.949 623.851 L 224 641 C 205.966 640.5 202.365 646.389 184.053 643.806 C 188.199 642.642 203.404 641.346 204.837 640.455 C 194.108 639.747 191.169 640.942 180.987 641.299 C 181.774 635.155 181.557 634.018 184.515 628.45 C 189.332 625.014 190.02 621.32 189.206 615.873 z"/>
<path transform="translate(0,0)" fill="rgb(191,207,239)" d="M 189.206 615.873 C 190.94 607.879 194.5 605.342 194.95 602.954 C 197.388 590.019 201.516 577.551 202.951 564.637 C 203.536 580.411 209.121 599.083 213.55 614.298 C 214.392 617.191 213.959 619.726 215.061 622.59 L 215.458 624.282 C 215.352 626.335 215.305 626.257 214.405 628.145 L 211.616 629.058 C 208.243 628.098 207.799 627.958 205.347 625.376 C 208.004 625.068 207.104 625.552 208.845 623.775 C 209.643 620.527 209.373 619.983 208.267 616.932 C 205.043 613.873 203.946 614.378 199.785 616.035 C 194.729 618.047 194.38 617.237 189.206 615.873 z"/>
<path transform="translate(0,0)" fill="rgb(238,239,244)" d="M 215.061 622.59 C 218.979 621.35 222.425 619.144 225.913 620.325 C 228.544 622.68 229.641 624.059 231.856 626.767 L 232.669 626.595 C 232.559 624.377 232.009 619.108 232.892 617.455 C 234.061 620.559 236.361 625.351 235.157 628.333 C 231.796 628.869 231.263 627.758 227.576 626.151 L 226.666 632.713 C 225.114 631.075 224.477 626.357 223.949 623.851 C 221.511 630.169 225.804 635.247 220.388 639.959 L 219.014 639.5 C 217.277 636.389 217.697 633.337 217.768 629.747 C 216.397 627.774 216.163 626.544 215.458 624.282 L 215.061 622.59 z"/>
<path transform="translate(0,0)" fill="rgb(218,226,244)" d="M 535.314 609.276 C 538.822 604.167 540.511 603.393 544.378 599.096 C 545.43 597.926 544.22 594.002 546.244 593.005 C 551.05 606.6 554.448 600.7 558.863 609.203 L 561.505 609.657 C 565.429 616.043 559.794 619.436 562.667 626.827 L 563.706 627.645 C 565.018 631.077 566.144 632.049 569.501 632.928 C 576.158 629.684 576.95 614.689 577.199 608.324 C 579.071 610.879 578.582 612.962 578.352 616.706 C 578.396 619.717 578.493 623.187 576.881 625.7 C 572.755 632.131 578.779 656.653 574.583 661.587 C 571.184 657.8 572.449 650.675 572.697 645.288 C 571.743 646.615 571.778 647.208 571.526 648.796 C 571.084 644.828 571.777 646.195 569.076 643.566 L 566.474 643.003 L 565.24 643.866 C 564.613 649.478 564.731 652.997 564.877 658.586 L 562.86 659.199 C 558.194 656.435 560.449 652.632 556.389 651.371 C 551.551 654.525 552.831 657.046 549.088 658.474 C 545.585 655.719 544.416 650.737 546.688 646.808 C 549.376 645.615 548.209 645.688 551.067 646.571 L 552.555 649.043 L 557.42 646.839 C 560.559 648.419 560.853 651.409 562.454 655.356 L 561.979 653.965 C 564.557 651.332 562.929 651.723 563.435 648.56 C 565.153 637.82 546.591 637.89 553.864 626.649 L 557.403 624.688 C 557.479 620.977 558 621.456 556.385 618.571 L 555.1 618.707 C 553.756 622.154 552.983 625.464 549.902 627.329 C 546.36 628.459 541.542 628.13 537.724 628.094 L 536.32 627.075 C 535.98 621.791 540.593 613.993 531.822 610.663 L 530.294 611.538 L 529.927 613.67 C 531.174 615.364 532.389 617.08 533.572 618.818 L 530.634 629.807 C 526.401 628.558 527.81 629.364 525.021 625.266 C 522.211 623.32 523.539 623.659 520.023 624.085 C 519.605 621.811 519.741 621.334 519.984 619.001 C 522.446 617.648 525.383 619.232 529.087 619.854 C 530.98 615.497 527.425 615.923 528.802 610.421 C 531.359 608.844 532.399 609.106 535.314 609.276 z"/>
<path transform="translate(0,0)" fill="rgb(207,219,242)" d="M 535.314 609.276 C 538.822 604.167 540.511 603.393 544.378 599.096 C 545.43 597.926 544.22 594.002 546.244 593.005 C 551.05 606.6 554.448 600.7 558.863 609.203 C 554.507 611.66 554.295 615.27 552.787 615.643 C 544.926 617.588 538.167 616.036 535.314 609.276 z"/>
<path transform="translate(0,0)" fill="rgb(207,219,242)" d="M 562.667 626.827 L 563.706 627.645 C 564.375 632.345 565.893 635.383 561.469 637.76 C 556.084 636.897 553.918 634.109 554.752 628.689 C 557.914 626.358 558.018 627.102 562.667 626.827 z"/>
<path transform="translate(0,0)" fill="rgb(253,253,253)" d="M 544.589 618.658 C 546.664 617.354 549.4 617.95 550.744 619.999 C 552.088 622.048 551.544 624.796 549.521 626.178 C 548.177 627.096 546.443 627.217 544.985 626.494 C 543.527 625.771 542.574 624.317 542.492 622.692 C 542.409 621.067 543.212 619.524 544.589 618.658 z"/>
<path transform="translate(0,0)" fill="rgb(191,207,239)" d="M 163.998 633.803 C 170.429 634.02 172.566 634.16 178.939 635.561 C 179.51 638.654 179.096 639.137 180.987 641.299 C 179.148 644.735 178.684 645.6 176.113 648.495 C 174.921 655.133 182.268 659.105 176.745 663.45 C 172.893 664.156 172.109 664.368 168.236 663.837 C 164.96 660.256 168.009 655.542 168.424 651.396 C 161.938 654.484 164.549 663.413 160.269 666.902 L 158.939 666.343 C 158.973 660.977 155.185 656.106 154.923 646.486 C 157.359 643.424 159.122 644.666 162.559 642.64 C 160.936 642.002 160.657 641.802 158.851 641.833 L 162.476 640.869 C 164.418 638.131 163.79 637.762 163.998 633.803 z"/>
<path transform="translate(0,0)" fill="rgb(238,239,244)" d="M 155.95 644.976 C 161.147 644.788 162.276 643.977 164.742 648.791 C 164.822 652.837 162.463 657.607 160.895 661.477 C 160.823 662.154 160.959 661.813 160.28 662.39 C 156.68 656.055 155.773 652.024 155.95 644.976 z"/>
<path transform="translate(0,0)" fill="rgb(238,239,244)" d="M 170.717 650.335 C 176.679 652.963 178.844 658.095 175.488 663.807 C 170.957 663.29 170.251 663.46 168.224 659.69 C 168.319 655.795 169.283 653.94 170.717 650.335 z"/>
<path transform="translate(0,0)" fill="rgb(191,207,239)" d="M 401.763 601.312 C 409.077 589.866 408.135 594.98 409.451 582.558 L 410.37 583.03 C 410.658 585.354 410.978 587.674 411.331 589.989 C 411.908 593.86 418.065 599.57 418.278 602.833 C 419.396 619.969 419.19 638.602 418.667 655.594 L 418.17 656.113 C 418.039 651.632 418.015 649.068 417.138 644.702 L 415.943 643.861 C 414.388 645.252 413.383 646.416 411.402 647.037 C 409.405 644.252 409.963 635.79 410.054 631.986 L 411.21 630.056 L 411.972 630.497 L 410.628 630.637 L 412.494 631.349 C 413.667 634.259 414.801 638.472 416.969 640.143 L 417.972 639.224 C 417.948 636.588 418.052 631.46 416.796 629.215 L 417.707 627.996 L 417.124 627.787 C 414.314 626.76 412.139 625.704 409.45 624.403 L 415.786 624.135 L 416.04 623.198 C 414.561 621.022 413.956 619.638 411.384 618.932 C 406.181 619.454 406.211 620.692 403.402 625.026 C 405.339 619.689 406.587 618.868 403.705 614.019 C 402.17 608.724 402.081 606.811 401.763 601.312 z"/>
<path transform="translate(0,0)" fill="rgb(191,207,239)" d="M 169.256 599.683 C 170.26 613.529 171.62 609.628 176.623 621.784 C 177.371 623.941 177.597 624.324 178.888 626.211 L 178.939 635.561 C 172.566 634.16 170.429 634.02 163.998 633.803 C 162.813 628.795 162.757 628.464 158.143 627.601 L 162.697 624.975 L 159.161 624.69 C 158.995 619.754 166.636 608.266 169.256 599.683 z"/>
<path transform="translate(0,0)" fill="rgb(207,219,242)" d="M 162.697 624.975 C 165.441 627.233 175.309 626.532 178.888 626.211 L 178.939 635.561 C 172.566 634.16 170.429 634.02 163.998 633.803 C 162.813 628.795 162.757 628.464 158.143 627.601 L 162.697 624.975 z"/>
<path transform="translate(0,0)" fill="rgb(238,239,244)" d="M 187.368 648.584 C 194.644 647.737 211.169 650.974 214.81 658.646 C 214.094 664.978 208.048 664.325 202.762 664.723 C 199.193 664.481 195.52 664.35 191.938 664.179 C 188.367 660.087 192.338 655.258 194.81 652.136 C 186.648 649.558 189.019 654.191 187.163 656.352 C 183.388 654.24 184.064 653.349 183.51 649.686 L 187.368 648.584 z"/>
<path transform="translate(0,0)" fill="rgb(191,207,239)" d="M 303.51 616.35 C 306.227 617.974 307.461 618.535 309.505 621.067 L 308.635 622.076 C 308.498 628.403 306.766 641.576 309.328 647.288 C 310.839 650.657 312.117 649.831 309.994 653.374 L 308.734 652.47 L 308.269 649.474 C 308.115 654.508 308.673 652.64 305.842 656.934 L 304.565 657.065 C 302.369 651.024 303.46 624.503 303.51 616.35 z"/>
<path transform="translate(0,0)" fill="rgb(191,207,239)" d="M 277.156 633.051 C 279.531 632.804 281.931 631.297 284.614 631.967 C 291.869 633.779 291.168 639.572 289.442 645.49 C 285.961 645.665 284.552 645.895 281.168 644.964 C 276.962 641.353 276.95 640.703 275.406 635.285 L 277.156 633.051 z"/>
<path transform="translate(0,0)" fill="rgb(218,226,244)" d="M 403.705 614.019 C 406.587 618.868 405.339 619.689 403.402 625.026 C 403.904 627.567 404.129 626.717 402.995 628.55 C 393.548 628.097 395.394 625.231 388.764 620.514 L 388.897 619.658 L 385.249 618.947 C 388.121 618.581 388.614 618.517 391.229 617.302 C 395.663 617.137 397.973 618.322 402.446 617.175 L 403.705 614.019 z"/>
<path transform="translate(0,0)" fill="rgb(238,239,244)" d="M 158.851 641.833 C 157.197 642.03 157.047 641.89 155.473 641.501 C 152.597 636.563 156.192 636.935 154.334 631.496 L 149.981 629.421 L 150.608 628.175 L 152.309 627.635 L 155.336 629.203 L 158.143 627.601 C 162.757 628.464 162.813 628.795 163.998 633.803 C 163.79 637.762 164.418 638.131 162.476 640.869 L 158.851 641.833 z"/>
<path transform="translate(0,0)" fill="rgb(191,207,239)" d="M 376.004 621.605 L 377.453 620.848 C 388.926 627.423 385.514 621.622 390.7 622.604 C 389.276 625.044 385.498 626.723 382.717 628.445 L 382.067 629.243 C 377.477 629.69 371.903 630.456 367.846 628.182 C 367.159 625.915 367.184 626.867 368.327 624.311 C 371.055 622.166 372.712 622.457 376.205 622.439 L 376.004 621.605 z"/>
<path transform="translate(0,0)" fill="rgb(229,234,247)" d="M 256.336 648.084 C 258.233 647.671 258.998 647.585 260.936 647.449 C 265.257 650.655 264.047 659.244 264 664.331 C 261.261 664.3 259.246 664.602 257.139 662.827 C 254.352 658.079 255.591 653.67 256.336 648.084 z"/>
<path transform="translate(0,0)" fill="rgb(207,219,242)" d="M 506.517 572.692 L 507.286 573.439 C 508.472 578.917 510.728 577.017 511.525 584.965 C 510.724 588.211 509.813 588.679 507.277 590.7 C 504.056 588.82 501.953 588.099 500.607 584.438 C 500.814 580.62 504.238 577.073 506.517 572.692 z"/>
<path transform="translate(0,0)" fill="rgb(238,239,244)" d="M 712.328 587.738 C 716.795 588.44 723.055 591.899 725.41 595.988 C 725.975 596.969 725.25 599.076 724.997 600.339 C 716.151 602.679 709.942 596.629 712.328 587.738 z"/>
<path transform="translate(0,0)" fill="rgb(191,207,239)" d="M 384.549 632.423 C 393.045 632.481 392.543 640.234 390.313 646.062 C 388.648 646.388 387.27 646.218 385.581 646.133 C 380.449 642.311 381.955 637.596 384.549 632.423 z"/>
<path transform="translate(0,0)" fill="rgb(238,239,244)" d="M 174.896 565.453 C 177.392 568.067 182.374 572.859 183.601 575.984 L 182.202 579.194 C 176.769 579.072 173.925 579.837 171.664 574.287 C 172.037 570.19 172.863 569.076 174.896 565.453 z"/>
<path transform="translate(0,0)" fill="rgb(229,234,247)" d="M 218.121 649.48 C 220.869 649.653 222.12 649.509 224.338 651.246 C 226.539 654.162 226.182 659.128 226.319 662.958 C 223.348 663.114 222.497 663.172 219.476 662.682 C 216.65 659.058 217.818 654.621 218.121 649.48 z"/>
<path transform="translate(0,0)" fill="rgb(238,239,244)" d="M 713.576 562.321 C 720.759 564.002 722.244 567.912 721.463 574.698 C 716.471 575.148 714.513 576.207 711.758 571.845 C 711.624 567.84 712.354 566.164 713.576 562.321 z"/>
<path transform="translate(0,0)" fill="rgb(238,239,244)" d="M 216.958 599.596 C 221.08 599.422 224.58 599.402 227.392 602.818 C 228.334 607.143 228.096 605.816 226.716 610.386 C 223.22 609.182 219.388 608.27 217.015 605.508 C 215.819 601.746 215.819 603.312 216.958 599.596 z"/>
<path transform="translate(0,0)" fill="rgb(238,239,244)" d="M 1155.83 587.753 C 1157.47 586.694 1159.55 586.606 1161.27 587.524 C 1162.99 588.441 1164.08 590.22 1164.11 592.169 C 1164.14 594.118 1163.11 595.93 1161.42 596.902 C 1158.9 598.353 1155.69 597.531 1154.17 595.05 C 1152.65 592.569 1153.39 589.332 1155.83 587.753 z"/>
<path transform="translate(0,0)" fill="rgb(238,239,244)" d="M 714.288 625.361 L 718.207 626.518 C 722.416 631.271 720.139 634.186 716.661 638.596 C 712.548 636.735 712.486 636.208 711.068 632.572 C 711.462 628.836 712.036 628.304 714.288 625.361 z"/>
<path transform="translate(0,0)" fill="rgb(238,239,244)" d="M 155.847 599.755 C 157.488 597.884 160.295 597.594 162.283 599.091 C 164.272 600.587 164.77 603.364 163.426 605.459 C 162.463 606.96 160.74 607.796 158.964 607.624 C 157.189 607.452 155.659 606.301 155.002 604.642 C 154.345 602.983 154.671 601.097 155.847 599.755 z"/>
<path transform="translate(0,0)" fill="rgb(238,239,244)" d="M 176.623 621.784 L 179.087 622.473 C 181.521 627.005 178.975 627.469 180.859 628.399 L 181.551 626.035 C 183.795 627.005 183.004 626.467 184.515 628.45 C 181.557 634.018 181.774 635.155 180.987 641.299 C 179.096 639.137 179.51 638.654 178.939 635.561 L 178.888 626.211 C 177.597 624.324 177.371 623.941 176.623 621.784 z"/>
<path transform="translate(0,0)" fill="rgb(207,219,242)" d="M 329.645 530.57 L 328.107 525.905 C 329.991 519.245 329.484 517.024 330.539 510.617 C 333.069 514.876 333.677 525.17 331.445 530.006 L 329.645 530.57 z"/>
<path transform="translate(0,0)" fill="rgb(238,239,244)" d="M 544.674 638.47 L 548.596 639.048 C 551.109 641.387 550.431 640.213 551.248 643.452 L 550.032 644.801 L 547.372 644.282 C 543.961 645.205 542.797 645.335 540.816 642.642 C 541.786 639.628 541.459 640.539 544.674 638.47 z"/>
<path transform="translate(0,0)" fill="rgb(238,239,244)" d="M 733.662 595.162 C 736.378 596.09 736.702 596.634 738.609 598.828 C 739.079 602.986 739.169 601.496 737.256 605.463 C 735.648 605.249 734.747 604.81 733.262 604.226 C 731.823 600.337 732.711 599.934 733.662 595.162 z"/>
<path transform="translate(0,0)" fill="rgb(238,239,244)" d="M 761.223 543.798 C 763.008 542.838 765.234 543.474 766.242 545.233 C 767.25 546.992 766.673 549.234 764.942 550.289 C 763.78 550.997 762.325 551.018 761.143 550.345 C 759.961 549.671 759.237 548.409 759.254 547.048 C 759.27 545.687 760.024 544.443 761.223 543.798 z"/>
<path transform="translate(0,0)" fill="rgb(218,226,244)" d="M 677.073 595.888 C 676.782 589.818 677.208 585.256 677.687 579.241 C 678.547 585.404 679.505 591.553 680.559 597.686 L 677.073 595.888 z"/>
</svg>